<svg width="20" height="21" viewBox="0 0 20 21" fill="none" xmlns="http://www.w3.org/2000/svg">
<path d="M13.5323 10.5035C13.5323 10.3499 13.5044 10.208 13.4485 10.0777C13.3927 9.95201 13.3019 9.82868 13.1763 9.70768L8.15009 4.77923C7.96394 4.59308 7.73357 4.5 7.45899 4.5C7.27749 4.5 7.11228 4.54421 6.96335 4.63263C6.80978 4.72106 6.68878 4.83973 6.60035 4.98866C6.51193 5.13758 6.46772 5.30279 6.46772 5.48429C6.46772 5.75887 6.57243 6.00087 6.78185 6.2103L11.2007 10.5035L6.78185 14.8037C6.57243 15.0084 6.46772 15.2458 6.46772 15.5157C6.46772 15.7019 6.51193 15.8694 6.60035 16.0183C6.68877 16.1672 6.80977 16.2836 6.96335 16.3674C7.11228 16.4558 7.27749 16.5 7.45899 16.5C7.73357 16.5 7.96393 16.4069 8.15009 16.2208L13.1763 11.2993C13.3019 11.1783 13.3927 11.0526 13.4485 10.9223C13.5044 10.7967 13.5323 10.6571 13.5323 10.5035Z" fill="#727272"/>
</svg>
