<svg width="30" height="30" viewBox="0 0 30 30" fill="none" xmlns="http://www.w3.org/2000/svg">
<path d="M23.5302 15C23.5302 14.6969 23.4166 14.438 23.1892 14.2233L17.3164 8.341C17.1965 8.22733 17.0702 8.14208 16.9375 8.08525C16.8113 8.02842 16.6818 8 16.5492 8C16.2461 8 15.9966 8.09788 15.8009 8.29364C15.6051 8.48309 15.5072 8.72305 15.5072 9.01353C15.5072 9.16509 15.5357 9.30717 15.5925 9.43978C15.6493 9.56608 15.7251 9.67659 15.8198 9.77131L17.8279 11.7984L21.0769 14.7727L21.4558 14.1286L18.2542 13.9486H7.55054C7.22848 13.9486 6.96642 14.0465 6.76434 14.2422C6.56858 14.438 6.4707 14.6906 6.4707 15C6.4707 15.3157 6.56858 15.5715 6.76434 15.7673C6.96642 15.963 7.22848 16.0609 7.55054 16.0609H18.2542L21.4558 15.8714L21.0769 15.2463L17.8279 18.2111L15.8198 20.2382C15.7251 20.3329 15.6493 20.4466 15.5925 20.5792C15.5357 20.7055 15.5072 20.8444 15.5072 20.9959C15.5072 21.2864 15.6051 21.5264 15.8009 21.7158C15.9966 21.9053 16.2461 22 16.5492 22C16.827 22 17.0765 21.8926 17.2975 21.6779L23.1892 15.7862C23.4166 15.5715 23.5302 15.3094 23.5302 15Z" fill="#E8E8E8"/>
</svg>
