<svg width="30" height="30" viewBox="0 0 30 30" fill="none" xmlns="http://www.w3.org/2000/svg">
<circle cx="15" cy="15" r="15" fill="#0584FE"/>
<path d="M20.6491 15.6741C20.3425 15.6741 20.0371 15.5558 19.8149 15.3232L16.1251 11.4617V21.4102C16.1251 22.0118 15.6211 22.5 15.0002 22.5C14.3792 22.5 13.8752 22.0118 13.8752 21.4102V11.4889L10.254 15.2785C9.87548 15.6741 9.24101 15.7956 8.76966 15.5046C8.17007 15.1341 8.08232 14.3615 8.54299 13.8798L14.3876 7.76358C14.7234 7.41214 15.3033 7.41214 15.6386 7.76358L21.4281 13.8221C21.8708 14.2857 21.8668 15.0453 21.3544 15.4376C21.148 15.5962 20.8977 15.6741 20.6491 15.6741Z" fill="white"/>
</svg>
