<svg width="20" height="20" viewBox="0 0 20 20" fill="none" xmlns="http://www.w3.org/2000/svg">
<path d="M15.0076 12.6777L15 5.41827C15 5.15308 14.9184 4.93635 14.7552 4.76806C14.592 4.59977 14.3727 4.51562 14.0974 4.51562H6.83032C6.57534 4.51562 6.3637 4.59977 6.19541 4.76806C6.02712 4.93635 5.94298 5.13524 5.94298 5.36472C5.94298 5.59421 6.02967 5.79054 6.20306 5.95373C6.37645 6.11182 6.58044 6.19087 6.81502 6.19087H9.4235L12.3533 6.09142L11.0452 7.23885L4.27538 14.0163C4.09179 14.205 4 14.4115 4 14.6359C4 14.7889 4.0408 14.9317 4.12239 15.0643C4.20909 15.1969 4.31873 15.304 4.45132 15.3856C4.58391 15.4723 4.7267 15.5156 4.87969 15.5156C5.10918 15.5156 5.31572 15.4238 5.4993 15.2402L12.2768 8.46277L13.4395 7.16236L13.3248 9.97738V12.7006C13.3248 12.9403 13.4038 13.1468 13.5619 13.3202C13.7251 13.4885 13.9214 13.5726 14.1509 13.5726C14.3855 13.5726 14.5869 13.4885 14.7552 13.3202C14.9235 13.1468 15.0076 12.9326 15.0076 12.6777Z" fill="#ACACAC"/>
</svg>
