<svg width="11" height="18" viewBox="0 0 11 18" fill="none" xmlns="http://www.w3.org/2000/svg">
<path d="M0.59375 9.33008C0.59375 9.54492 0.632812 9.74349 0.710938 9.92578C0.789062 10.1016 0.916016 10.2741 1.0918 10.4434L8.12305 17.3379C8.38346 17.5983 8.70573 17.7285 9.08984 17.7285C9.34375 17.7285 9.57487 17.6667 9.7832 17.543C9.99805 17.4193 10.1673 17.2533 10.291 17.0449C10.4147 16.8366 10.4766 16.6055 10.4766 16.3516C10.4766 15.9674 10.3301 15.6289 10.0371 15.3359L3.85547 9.33008L10.0371 3.31445C10.3301 3.02799 10.4766 2.69596 10.4766 2.31836C10.4766 2.05794 10.4147 1.82357 10.291 1.61523C10.1673 1.4069 9.99805 1.24414 9.7832 1.12695C9.57487 1.00326 9.34375 0.941406 9.08984 0.941406C8.70573 0.941406 8.38346 1.07161 8.12305 1.33203L1.0918 8.2168C0.916016 8.38607 0.789062 8.56185 0.710938 8.74414C0.632812 8.91992 0.59375 9.11523 0.59375 9.33008Z" fill="#727272"/>
</svg>
