<svg width="30" height="30" viewBox="0 0 30 30" fill="none" xmlns="http://www.w3.org/2000/svg">
<path d="M6.47171 15C6.47171 15.3031 6.58538 15.562 6.81271 15.7767L12.6855 21.659C12.8055 21.7727 12.9318 21.8579 13.0644 21.9147C13.1907 21.9716 13.3202 22 13.4528 22C13.7559 22 14.0053 21.9021 14.2011 21.7064C14.3968 21.5169 14.4947 21.277 14.4947 20.9865C14.4947 20.8349 14.4663 20.6928 14.4095 20.5602C14.3526 20.4339 14.2769 20.3234 14.1821 20.2287L12.174 18.2016L8.92503 15.2273L8.54614 15.8714L11.7478 16.0514H22.4514C22.7735 16.0514 23.0355 15.9535 23.2376 15.7578C23.4334 15.562 23.5312 15.3094 23.5312 15C23.5312 14.6843 23.4334 14.4285 23.2376 14.2327C23.0355 14.037 22.7735 13.9391 22.4514 13.9391L11.7478 13.9391L8.54614 14.1286L8.92503 14.7537L12.174 11.7889L14.1821 9.76184C14.2769 9.66712 14.3526 9.55345 14.4095 9.42084C14.4663 9.29454 14.4947 9.15561 14.4947 9.00406C14.4947 8.71358 14.3968 8.47361 14.2011 8.28417C14.0053 8.09472 13.7559 8 13.4528 8C13.1749 8 12.9255 8.10735 12.7045 8.32206L6.81271 14.2138C6.58538 14.4285 6.47171 14.6906 6.47171 15Z" fill="#E8E8E8"/>
</svg>
