<svg width="15" height="16" viewBox="0 0 15 16" fill="none" xmlns="http://www.w3.org/2000/svg">
<path d="M13.5 8C13.5 11.3141 10.8141 14 7.5 14C4.18594 14 1.5 11.3141 1.5 8C1.5 4.68594 4.18594 2 7.5 2C10.8141 2 13.5 4.68594 13.5 8ZM3.83203 5.39375C3.3082 6.12734 3 7.02734 3 8C3 10.4844 4.99453 12.5 7.5 12.5C8.47266 12.5 9.37266 12.193 10.1063 11.668L3.83203 5.39375ZM12 8C12 5.49453 9.98438 3.5 7.5 3.5C6.52734 3.5 5.62734 3.8082 4.89375 4.33203L11.168 10.6063C11.693 9.87266 12 8.97266 12 8Z" fill="#727272"/>
</svg>
