<svg width="30" height="30" viewBox="0 0 30 30" fill="none" xmlns="http://www.w3.org/2000/svg">
<path fill-rule="evenodd" clip-rule="evenodd" d="M7.68131 14.1818H10.9501C11.1335 11.921 11.8902 9.75089 13.1392 7.8735C10.229 8.63125 8.01928 11.1245 7.68131 14.1818ZM15 8.08702C13.6339 9.84704 12.7981 11.962 12.5926 14.1818H17.4074C17.2019 11.962 16.3661 9.84704 15 8.08702ZM17.4074 15.8182C17.2019 18.038 16.3661 20.153 15 21.913C13.6339 20.153 12.7981 18.038 12.5926 15.8182H17.4074ZM10.9501 15.8182H7.68131C8.01928 18.8755 10.229 21.3687 13.1392 22.1265C11.8902 20.2491 11.1335 18.079 10.9501 15.8182ZM16.8608 22.1265C18.1098 20.2491 18.8665 18.079 19.0499 15.8182H22.3187C21.9807 18.8755 19.771 21.3687 16.8608 22.1265ZM22.3187 14.1818H19.0499C18.8665 11.921 18.1098 9.75089 16.8608 7.8735C19.771 8.63125 21.9807 11.1245 22.3187 14.1818ZM6 15C6 10.0294 10.0294 6 15 6C19.9706 6 24 10.0294 24 15C24 19.9706 19.9706 24 15 24C10.0294 24 6 19.9706 6 15Z" fill="#727272"/>
</svg>
