<svg width="17" height="16" viewBox="0 0 17 16" fill="none" xmlns="http://www.w3.org/2000/svg">
<path d="M16.2261 4.83259C16.2261 5.42429 15.7464 5.90402 15.1547 5.90402C15.148 5.90402 15.1425 5.90063 15.1359 5.90052L13.7826 13.3443C13.7083 13.7496 13.3547 14.0469 12.9395 14.0469H4.08415C3.67004 14.0469 3.31487 13.7506 3.24094 13.3432L1.88799 5.90134C1.88129 5.90134 1.87567 5.90402 1.84487 5.90402C1.25317 5.90402 0.773438 5.42429 0.773438 4.83259C0.773438 4.24089 1.27728 3.76116 1.84487 3.76116C2.41246 3.76116 2.91629 4.24089 2.91629 4.83259C2.91629 5.07361 2.82198 5.285 2.68763 5.46393L5.08843 7.38446C5.51459 7.72545 6.14646 7.58654 6.39048 7.09839L7.93334 4.01268C7.63058 3.82384 7.41629 3.50241 7.41629 3.1183C7.41629 2.52661 7.91987 2.04688 8.51183 2.04688C9.10379 2.04688 9.55915 2.52661 9.55915 3.1183C9.55915 3.50241 9.34586 3.82384 9.04219 4.01295L10.585 7.09866C10.8291 7.5867 11.4612 7.72545 11.8871 7.38473L14.2879 5.4642C14.177 5.28527 14.0833 5.04955 14.0833 4.83259C14.0833 4.24062 14.5627 3.76116 15.1547 3.76116C15.7467 3.76116 16.2261 4.24062 16.2261 4.83259Z" fill="#727272"/>
</svg>
