<svg width="20" height="21" viewBox="0 0 20 21" fill="none" xmlns="http://www.w3.org/2000/svg">
<path fill-rule="evenodd" clip-rule="evenodd" d="M14.5971 5.90174C14.2162 5.52091 13.5987 5.52096 13.2178 5.90186L10.0011 9.11857L6.84567 5.96314C6.46484 5.5823 5.84733 5.58235 5.46644 5.96325C5.08554 6.34415 5.08549 6.96165 5.46632 7.34249L8.62175 10.4979L5.40478 13.7149C5.02388 14.0958 5.02383 14.7133 5.40467 15.0941C5.7855 15.475 6.40301 15.4749 6.78391 15.094L10.0009 11.877L13.156 15.0322C13.5368 15.413 14.1543 15.413 14.5352 15.0321C14.9161 14.6512 14.9162 14.0337 14.5354 13.6528L11.3802 10.4977L14.5969 7.28098C14.9778 6.90008 14.9779 6.28258 14.5971 5.90174Z" fill="#727272"/>
</svg>
