<svg width="21" height="21" viewBox="0 0 21 21" fill="none" xmlns="http://www.w3.org/2000/svg">
<path d="M5.6372 13.938H7.38889V12.5715H5.73865C5.45459 12.5715 5.23591 12.4964 5.08261 12.346C4.93382 12.1957 4.85942 11.968 4.85942 11.6628V5.32213C4.85942 5.01694 4.93382 4.78919 5.08261 4.63887C5.23591 4.48855 5.45459 4.4134 5.73865 4.4134H12.042C12.3261 4.4134 12.5448 4.48855 12.6981 4.63887C12.8514 4.78919 12.928 5.01694 12.928 5.32213V6.71598H14.2807V5.18548C14.2807 4.48855 14.0981 3.95789 13.7329 3.59348C13.3721 3.22908 12.8424 3.04688 12.1435 3.04688H5.6372C4.93382 3.04688 4.40177 3.22908 4.04106 3.59348C3.68035 3.95333 3.5 4.484 3.5 5.18548V11.7994C3.5 12.4964 3.68035 13.027 4.04106 13.3914C4.40177 13.7558 4.93382 13.938 5.6372 13.938ZM8.86329 17.0469H15.3628C16.0617 17.0469 16.5915 16.8647 16.9522 16.5003C17.3174 16.1359 17.5 15.6052 17.5 14.9083V8.29431C17.5 7.59739 17.3174 7.06672 16.9522 6.70232C16.5915 6.33791 16.0617 6.15571 15.3628 6.15571H8.86329C8.1599 6.15571 7.6256 6.33791 7.26039 6.70232C6.89968 7.06217 6.71932 7.59283 6.71932 8.29431V14.9083C6.71932 15.6052 6.89968 16.1359 7.26039 16.5003C7.6256 16.8647 8.1599 17.0469 8.86329 17.0469ZM8.95797 15.6804C8.6694 15.6804 8.44847 15.6029 8.29517 15.448C8.14638 15.2977 8.07198 15.0723 8.07198 14.7716V8.43096C8.07198 8.12577 8.14638 7.89802 8.29517 7.7477C8.44847 7.59739 8.6694 7.52223 8.95797 7.52223H15.2614C15.5454 7.52223 15.7641 7.59739 15.9174 7.7477C16.0707 7.89802 16.1473 8.12577 16.1473 8.43096V14.7716C16.1473 15.0723 16.0707 15.2977 15.9174 15.448C15.7641 15.6029 15.5454 15.6804 15.2614 15.6804H8.95797Z" fill="#727272"/>
</svg>
