<svg width="50" height="50" viewBox="0 0 50 50" fill="none" xmlns="http://www.w3.org/2000/svg">
<circle cx="25" cy="25" r="25" fill="#00D33F"/>
<path fill-rule="evenodd" clip-rule="evenodd" d="M33.75 23.75H26.25V16.25C26.25 15.56 25.6912 15 25 15C24.3088 15 23.75 15.56 23.75 16.25V23.75H16.25C15.5587 23.75 15 24.31 15 25C15 25.69 15.5587 26.25 16.25 26.25H23.75V33.75C23.75 34.44 24.3088 35 25 35C25.6912 35 26.25 34.44 26.25 33.75V26.25H33.75C34.4412 26.25 35 25.69 35 25C35 24.31 34.4412 23.75 33.75 23.75Z" fill="white"/>
</svg>
