<svg width="20" height="20" viewBox="0 0 20 20" fill="none" xmlns="http://www.w3.org/2000/svg">
<path d="M13.0852 3.16518C13.8063 2.44413 14.9773 2.44413 15.6983 3.16518L16.8347 4.30253C17.5558 5.02335 17.5558 6.19329 16.8347 6.91441L15.4387 8.31049L11.6893 4.56126L13.0852 3.16518ZM14.7869 8.96238L8.06094 15.6861C7.76098 15.986 7.38892 16.2081 6.98224 16.3264L3.51167 17.3475C3.26882 17.4196 3.00607 17.3533 2.82696 17.1485C2.64784 16.9956 2.58088 16.7331 2.65235 16.4879L3.67319 13.0179C3.79317 12.6112 4.01324 12.2391 4.31348 11.9391L11.0374 5.21373L14.7869 8.96238Z" fill="#727272" />
</svg>