<svg width="30" height="30" viewBox="0 0 30 30" fill="none" xmlns="http://www.w3.org/2000/svg">
<path d="M15.0039 21.3059C16.0025 21.3059 16.9415 21.1869 17.8211 20.9489C18.7007 20.7109 19.5104 20.3979 20.2503 20.0098C20.9953 19.6166 21.6602 19.1846 22.2449 18.7137C22.8295 18.2429 23.3262 17.7695 23.735 17.2935C24.1437 16.8175 24.4567 16.3777 24.674 15.9741C24.8913 15.5705 25 15.2446 25 14.9962C25 14.7479 24.8913 14.4245 24.674 14.0261C24.4567 13.6225 24.1437 13.1828 23.735 12.7068C23.3262 12.2307 22.8269 11.7573 22.2371 11.2865C21.6524 10.8157 20.9876 10.3862 20.2425 9.99818C19.5027 9.60496 18.6929 9.28934 17.8133 9.05134C16.9389 8.81334 16.0025 8.69434 15.0039 8.69434C14.0208 8.69434 13.0895 8.81334 12.2099 9.05134C11.3355 9.28934 10.5258 9.60496 9.78075 9.99818C9.04087 10.3862 8.37602 10.8157 7.78619 11.2865C7.20153 11.7573 6.69965 12.2307 6.28056 12.7068C5.86664 13.1828 5.54844 13.6225 5.32596 14.0261C5.10865 14.4245 5 14.7479 5 14.9962C5 15.2446 5.10865 15.5705 5.32596 15.9741C5.54844 16.3777 5.86664 16.8175 6.28056 17.2935C6.69965 17.7695 7.20153 18.2429 7.78619 18.7137C8.37602 19.1846 9.04087 19.6166 9.78075 20.0098C10.5258 20.3979 11.3355 20.7109 12.2099 20.9489C13.0895 21.1869 14.0208 21.3059 15.0039 21.3059ZM15.0039 18.9776C14.264 18.9776 13.5914 18.7965 12.986 18.4343C12.3858 18.0722 11.9047 17.591 11.5425 16.9908C11.1855 16.3854 11.0044 15.7232 10.9992 15.004C10.9992 14.2589 11.1777 13.5863 11.5347 12.9861C11.8969 12.386 12.3807 11.91 12.986 11.5581C13.5914 11.2011 14.264 11.0226 15.0039 11.0226C15.7386 11.0226 16.4086 11.2011 17.014 11.5581C17.6245 11.91 18.1083 12.3886 18.4653 12.9939C18.8274 13.5941 19.0085 14.2641 19.0085 15.004C19.0085 15.5421 18.9051 16.0517 18.6981 16.5329C18.4911 17.0089 18.204 17.4332 17.8366 17.8057C17.4693 18.1731 17.0424 18.4602 16.5561 18.6672C16.0749 18.8741 15.5575 18.9776 15.0039 18.9776ZM15.0039 16.5096C15.4178 16.5096 15.7722 16.3622 16.0671 16.0672C16.3672 15.7672 16.5173 15.4127 16.5173 15.004C16.5173 14.5901 16.3672 14.2357 16.0671 13.9407C15.7722 13.6458 15.4178 13.4984 15.0039 13.4984C14.59 13.4984 14.233 13.6458 13.9329 13.9407C13.638 14.2357 13.4905 14.5901 13.4905 15.004C13.4905 15.4127 13.638 15.7672 13.9329 16.0672C14.233 16.3622 14.59 16.5096 15.0039 16.5096Z" fill="#727272"/>
</svg>
