<svg width="31" height="31" viewBox="0 0 31 31" fill="none" xmlns="http://www.w3.org/2000/svg">
<path fill-rule="evenodd" clip-rule="evenodd" d="M11.5625 6.50781C6.31579 6.50781 2.0625 10.7611 2.0625 16.0078C2.0625 21.2545 6.31579 25.5078 11.5625 25.5078C16.8092 25.5078 21.0625 21.2545 21.0625 16.0078C21.0625 10.7611 16.8092 6.50781 11.5625 6.50781ZM7.83234 18.9528C8.77745 20.1633 9.99826 20.7535 11.5625 20.7535C13.1268 20.7535 14.3476 20.1633 15.2927 18.9528C15.5618 18.6082 16.0593 18.5469 16.4039 18.816C16.7485 19.0851 16.8097 19.5826 16.5407 19.9272C15.2942 21.5236 13.6122 22.3368 11.5625 22.3368C9.51278 22.3368 7.83081 21.5236 6.58435 19.9272C6.31527 19.5826 6.37652 19.0851 6.72114 18.816C7.06576 18.5469 7.56326 18.6082 7.83234 18.9528ZM14.7292 12.8411C15.385 12.8411 15.9167 13.55 15.9167 14.4245C15.9167 15.2989 15.385 16.0078 14.7292 16.0078C14.0733 16.0078 13.5417 15.2989 13.5417 14.4245C13.5417 13.55 14.0733 12.8411 14.7292 12.8411ZM8.39588 12.8411C9.05172 12.8411 9.58338 13.55 9.58338 14.4245C9.58338 15.2989 9.05172 16.0078 8.39588 16.0078C7.74004 16.0078 7.20838 15.2989 7.20838 14.4245C7.20838 13.55 7.74004 12.8411 8.39588 12.8411Z" fill="#727272"/>
<path d="M21.2182 7.4067L21.2182 7.40667C21.0536 7.23868 20.9618 7.0126 20.9627 6.77745C20.96 6.65539 20.9821 6.53405 21.0276 6.42073C21.0731 6.30749 21.141 6.20464 21.2273 6.11839C21.3098 6.03073 21.41 5.96162 21.5213 5.91564C21.6326 5.86966 21.7523 5.84786 21.8726 5.8517H24.4181V3.3179C24.4147 3.19772 24.4367 3.07816 24.4826 2.96702C24.5285 2.85605 24.5972 2.75596 24.6842 2.67327C24.7692 2.58635 24.8712 2.51793 24.9839 2.4723C25.0966 2.42667 25.2176 2.40483 25.3391 2.40814C25.4585 2.40706 25.577 2.42993 25.6875 2.47539C25.7978 2.5208 25.898 2.58784 25.982 2.67257C26.0705 2.75455 26.1402 2.85473 26.1862 2.96621C26.2323 3.07775 26.2537 3.19795 26.2489 3.31853V5.86824H28.8209C28.9404 5.86589 29.0592 5.88752 29.1702 5.93187C29.2815 5.97634 29.3828 6.04276 29.468 6.12717C29.5531 6.21159 29.6204 6.31226 29.6659 6.42321C29.7112 6.53375 29.7339 6.65224 29.7326 6.77168M21.2182 7.4067L24.7615 10.8204C24.8774 10.9346 25.0245 11.012 25.1843 11.0429C25.344 11.0737 25.5094 11.0566 25.6594 10.9937C25.8095 10.9308 25.9376 10.8249 26.0277 10.6893C26.1177 10.5538 26.1656 10.3946 26.1654 10.2319H26.2654V10.2318V7.68248H28.8212C28.9412 7.68417 29.0604 7.66179 29.1716 7.61668C29.2831 7.57148 29.3843 7.50436 29.4694 7.4193C29.5545 7.33423 29.6216 7.23298 29.6668 7.1215C29.7118 7.01046 29.7342 6.89151 29.7326 6.77168M21.2182 7.4067C21.3043 7.49451 21.4077 7.56352 21.5218 7.60935C21.6354 7.65498 21.7573 7.67666 21.8796 7.67303L21.2182 7.4067ZM29.7326 6.77168C29.7326 6.77213 29.7326 6.77258 29.7326 6.77303L29.6326 6.77182L29.7326 6.77033C29.7326 6.77078 29.7326 6.77123 29.7326 6.77168Z" fill="#727272" stroke="#727272" stroke-width="0.2"/>
</svg>
