<svg width="28" height="29" viewBox="0 0 28 29" fill="none" xmlns="http://www.w3.org/2000/svg">
<path d="M3.20763 10.2453C4.07074 10.2453 4.50229 9.81378 4.50229 8.95066V6.25879C4.50229 5.68623 4.6433 5.26322 4.9253 4.98976C5.21586 4.70775 5.63032 4.56675 6.1687 4.56675H8.91185C9.7835 4.56675 10.2193 4.13946 10.2193 3.2849C10.2193 2.42179 9.7835 1.99023 8.91185 1.99023H5.97642C4.65184 1.99023 3.64346 2.33206 2.95126 3.01571C2.26761 3.69936 1.92578 4.69493 1.92578 6.00242V8.95066C1.92578 9.81378 2.35306 10.2453 3.20763 10.2453ZM24.7939 10.2453C25.6485 10.2453 26.0758 9.81378 26.0758 8.95066V6.00242C26.0758 4.69493 25.7297 3.69936 25.0375 3.01571C24.3538 2.33206 23.3454 1.99023 22.0123 1.99023H19.0897C18.2266 1.99023 17.795 2.42179 17.795 3.2849C17.795 4.13946 18.2266 4.56675 19.0897 4.56675H21.8329C22.3712 4.56675 22.7857 4.70775 23.0763 4.98976C23.3668 5.26322 23.5121 5.68623 23.5121 6.25879V8.95066C23.5121 9.81378 23.9394 10.2453 24.7939 10.2453ZM5.97642 26.1402H8.91185C9.7835 26.1402 10.2193 25.713 10.2193 24.8584C10.2193 24.0038 9.7835 23.5765 8.91185 23.5765H6.1687C5.63032 23.5765 5.21586 23.4355 4.9253 23.1535C4.6433 22.8715 4.50229 22.4442 4.50229 21.8717V19.1926C4.50229 18.3295 4.07074 17.898 3.20763 17.898C2.35306 17.898 1.92578 18.3295 1.92578 19.1926V22.1281C1.92578 23.4441 2.26761 24.4397 2.95126 25.1148C3.64346 25.7984 4.65184 26.1402 5.97642 26.1402ZM19.0897 26.1402H22.0123C23.3454 26.1402 24.3538 25.7984 25.0375 25.1148C25.7297 24.4311 26.0758 23.4355 26.0758 22.1281V19.1926C26.0758 18.3295 25.6485 17.898 24.7939 17.898C23.9394 17.898 23.5121 18.3295 23.5121 19.1926V21.8717C23.5121 22.4442 23.3668 22.8715 23.0763 23.1535C22.7857 23.4355 22.3712 23.5765 21.8329 23.5765H19.0897C18.2266 23.5765 17.795 24.0038 17.795 24.8584C17.795 25.713 18.2266 26.1402 19.0897 26.1402ZM9.46304 13.2705C9.77923 13.2705 10.0356 13.1722 10.2322 12.9757C10.4287 12.7791 10.527 12.527 10.527 12.2194V10.5658C10.527 10.2581 10.4287 10.0103 10.2322 9.82232C10.0356 9.62577 9.77923 9.5275 9.46304 9.5275C9.17249 9.5275 8.92894 9.62577 8.73239 9.82232C8.53584 10.0189 8.43756 10.2667 8.43756 10.5658V12.2194C8.43756 12.527 8.53584 12.7791 8.73239 12.9757C8.92894 13.1722 9.17249 13.2705 9.46304 13.2705ZM13.0394 16.1034C13.0565 16.1034 13.0736 16.1034 13.0907 16.1034C13.1078 16.1034 13.1249 16.1034 13.1419 16.1034C13.7743 16.1034 14.2572 15.9367 14.5904 15.6035C14.9323 15.2702 15.1032 14.7873 15.1032 14.155V10.3607C15.1032 10.1043 15.022 9.89923 14.8596 9.74541C14.7058 9.58304 14.5007 9.50186 14.2443 9.50186C13.9794 9.50186 13.77 9.58304 13.6162 9.74541C13.4624 9.89923 13.3855 10.1043 13.3855 10.3607V14.2062C13.3855 14.2575 13.3684 14.3002 13.3342 14.3344C13.3086 14.3601 13.2659 14.3729 13.206 14.3729H12.8599C12.6207 14.3729 12.4198 14.4541 12.2575 14.6164C12.0951 14.7788 12.0139 14.9753 12.0139 15.2061C12.0139 15.4881 12.1036 15.7103 12.2831 15.8726C12.4626 16.0265 12.7147 16.1034 13.0394 16.1034ZM18.5001 13.2705C18.7992 13.2705 19.0427 13.1722 19.2307 12.9757C19.4273 12.7791 19.5255 12.527 19.5255 12.2194V10.5658C19.5255 10.2667 19.4273 10.0189 19.2307 9.82232C19.0427 9.62577 18.7992 9.5275 18.5001 9.5275C18.1924 9.5275 17.9403 9.62577 17.7438 9.82232C17.5472 10.0103 17.4489 10.2581 17.4489 10.5658V12.2194C17.4489 12.527 17.5472 12.7791 17.7438 12.9757C17.9403 13.1722 18.1924 13.2705 18.5001 13.2705ZM13.9367 20.0771C14.6716 20.0771 15.3937 19.9275 16.103 19.6285C16.8123 19.3208 17.4319 18.9063 17.9617 18.3851C18.0386 18.2996 18.0984 18.2056 18.1411 18.1031C18.1839 17.992 18.2052 17.868 18.2052 17.7313C18.2052 17.492 18.1198 17.2955 17.9489 17.1417C17.7865 16.9793 17.5814 16.8981 17.3336 16.8981C17.1029 16.8981 16.8807 17.0092 16.667 17.2314C16.3423 17.5732 15.9364 17.851 15.4493 18.0646C14.9707 18.2697 14.4665 18.3722 13.9367 18.3722C13.441 18.3722 12.9497 18.2697 12.4626 18.0646C11.984 17.8595 11.5695 17.5818 11.2192 17.2314C11.1166 17.1288 11.0141 17.0477 10.9115 16.9878C10.809 16.928 10.6808 16.8981 10.527 16.8981C10.2792 16.8981 10.0741 16.9793 9.91169 17.1417C9.74932 17.2955 9.66814 17.492 9.66814 17.7313C9.66814 17.851 9.6895 17.962 9.73223 18.0646C9.77496 18.1671 9.83478 18.2697 9.91169 18.3722C10.3902 18.9192 10.9927 19.3422 11.7191 19.6413C12.4455 19.9318 13.1847 20.0771 13.9367 20.0771Z" fill="#727272"/>
</svg>
