<svg width="15" height="16" viewBox="0 0 15 16" fill="none" xmlns="http://www.w3.org/2000/svg">
<path d="M7.5 15.5C8.52747 15.5 9.49135 15.3041 10.3917 14.9122C11.2971 14.5204 12.0956 13.9784 12.7874 13.2863C13.4791 12.5992 14.0209 11.8028 14.4125 10.8969C14.8042 9.99109 15 9.02417 15 7.99618C15 6.96819 14.8016 6.00382 14.4049 5.10305C14.0132 4.1972 13.4715 3.39822 12.7798 2.70611C12.0931 2.01399 11.2971 1.47455 10.3917 1.08779C9.48627 0.695929 8.51984 0.5 7.49237 0.5C6.46999 0.5 5.5061 0.695929 4.60071 1.08779C3.69532 1.47455 2.89674 2.01399 2.20498 2.70611C1.51831 3.39822 0.979145 4.1972 0.587487 5.10305C0.195829 6.00382 0 6.96819 0 7.99618C0 9.02417 0.195829 9.99109 0.587487 10.8969C0.979145 11.8028 1.51831 12.5992 2.20498 13.2863C2.89674 13.9784 3.69532 14.5204 4.60071 14.9122C5.5061 15.3041 6.47253 15.5 7.5 15.5ZM6.1648 12.0878C5.98678 12.0878 5.83672 12.0293 5.71465 11.9122C5.59257 11.7952 5.53154 11.6476 5.53154 11.4695C5.53154 11.3015 5.59257 11.159 5.71465 11.042C5.83672 10.9249 5.98678 10.8664 6.1648 10.8664H7.03459V7.85878H6.29451C6.11648 7.85878 5.96643 7.8028 5.84435 7.69084C5.72737 7.57379 5.66887 7.42366 5.66887 7.24046C5.66887 7.07761 5.72737 6.93766 5.84435 6.82061C5.96643 6.69847 6.11648 6.6374 6.29451 6.6374H7.73652C7.96033 6.6374 8.12818 6.70865 8.24008 6.85115C8.35707 6.99364 8.41556 7.18448 8.41556 7.42366V10.8664H9.21668C9.38962 10.8664 9.53459 10.9249 9.65158 11.042C9.77365 11.159 9.83469 11.3015 9.83469 11.4695C9.83469 11.6476 9.77365 11.7952 9.65158 11.9122C9.53459 12.0293 9.38962 12.0878 9.21668 12.0878H6.1648ZM7.46185 5.50763C7.16684 5.50763 6.9176 5.40585 6.71414 5.20229C6.51068 4.99364 6.40895 4.74427 6.40895 4.4542C6.40895 4.15394 6.51068 3.90204 6.71414 3.69847C6.9176 3.48982 7.16684 3.3855 7.46185 3.3855C7.75178 3.3855 7.99847 3.48982 8.20193 3.69847C8.40539 3.90204 8.50712 4.15394 8.50712 4.4542C8.50712 4.74427 8.40539 4.99364 8.20193 5.20229C7.99847 5.40585 7.75178 5.50763 7.46185 5.50763Z" fill="#E8E8E8"/>
</svg>
