<svg width="20" height="20" viewBox="0 0 20 20" fill="none" xmlns="http://www.w3.org/2000/svg">
<path fill-rule="evenodd" clip-rule="evenodd" d="M14.6667 12.06C14.4467 12.0267 14.2267 12 14 12C12.4906 12 11.1746 12.8391 10.4936 14.0756C10.4893 14.0837 10.4849 14.0917 10.4804 14.0998C10.174 14.6653 10 15.3126 10 16C10 16.7333 10.2 17.4133 10.54 18H5.33333C4.59333 18 4 17.4067 4 16.6667V10C4 9.26 4.6 8.66667 5.33333 8.66667H6V7.33333C6 5.49333 7.49333 4 9.33333 4C11.1733 4 12.6667 5.49333 12.6667 7.33333V8.66667H13.3333C14.0733 8.66667 14.6667 9.26667 14.6667 10V12.06ZM9.33333 5.33333C8.22667 5.33333 7.33333 6.22667 7.33333 7.33333V8.66667H11.3333V7.33333C11.3333 6.22667 10.44 5.33333 9.33333 5.33333ZM15.9446 15.222C16.1651 15.0015 16.1822 14.6497 15.9841 14.4088C15.7568 14.1326 15.3409 14.1124 15.088 14.3654L13.1667 16.2867L12.5017 15.6217C12.2835 15.4035 11.9298 15.4035 11.7116 15.6217C11.5001 15.8333 11.4927 16.1738 11.6948 16.3943L12.7738 17.5715C12.988 17.8051 13.3537 17.813 13.5777 17.5889L15.9446 15.222Z" fill="#727272"/>
</svg>
