<svg width="26" height="26" viewBox="0 0 26 26" fill="none" xmlns="http://www.w3.org/2000/svg">
<path fill-rule="evenodd" clip-rule="evenodd" d="M13.8089 5.00781C15.0581 3.65196 16.4937 3.58985 16.5335 3.63438C16.5734 3.68009 16.7996 4.90586 15.6804 6.48203C14.5613 8.05819 12.8081 7.99608 12.78 7.95624C12.7519 7.91639 12.5597 6.36249 13.8089 5.00781ZM20.2509 17.262C20.3484 17.3273 20.4091 17.3679 20.4171 17.3839C20.4546 17.4601 20.2695 17.9605 19.8628 18.8863C18.7917 20.8773 17.8742 21.8593 17.2402 22.1183C16.6062 22.3761 15.9734 22.4722 15.3042 22.2413C14.4593 21.7902 13.6343 21.6249 13.2159 21.6097C12.7964 21.5944 11.7347 21.8019 11.1464 22.1628C10.4152 22.5366 9.36047 22.3562 8.98664 22.0843C8.61281 21.8124 7.7175 21.012 7.0425 19.8589C6.3187 18.8849 5.87916 17.5671 5.59196 16.706C5.57784 16.6636 5.56409 16.6224 5.5507 16.5824C5.26476 15.7269 4.86515 12.9754 5.62921 11.2386C6.39328 9.50076 7.48547 8.84686 8.05969 8.61717C8.63508 8.38631 9.43899 8.08631 10.1972 8.2328C10.8717 8.3282 11.5192 8.5744 12.0202 8.76487C12.3992 8.90897 12.6943 9.02118 12.8538 9.01209C13.0806 8.99913 13.6746 8.79505 14.2371 8.60182C14.59 8.48056 14.9306 8.36357 15.1601 8.30077C15.9305 8.08992 16.3636 8.13726 16.5529 8.15796C16.557 8.1584 16.5609 8.15884 16.5648 8.15926C16.5918 8.16219 16.6133 8.16438 16.6296 8.16483C17.2703 8.19648 17.896 8.3702 18.4613 8.67342C19.2312 9.1035 19.9578 9.9531 19.9308 10.0293C19.9272 10.0396 19.8925 10.0614 19.8347 10.0979C19.4661 10.3302 18.1557 11.1562 17.941 13.3738C17.7278 15.5736 19.6616 16.8677 20.2509 17.262Z" fill="#E8E8E8"/>
</svg>
