<svg width="24" height="24" viewBox="0 0 16 16" fill="none" xmlns="http://www.w3.org/2000/svg">
<path d="M13.3717 3.42538C12.3667 2.96413 11.3061 2.63493 10.2166 2.44599C10.2067 2.44432 10.1965 2.44576 10.1875 2.4501C10.1785 2.45443 10.1711 2.46146 10.1662 2.4702C10.0296 2.71239 9.87847 3.02917 9.77288 3.27716C8.59838 3.09892 7.40372 3.09892 6.22923 3.27716C6.11144 3.0009 5.97819 2.73149 5.83011 2.4702C5.82514 2.46155 5.81766 2.45461 5.80867 2.45029C5.79968 2.44596 5.78959 2.44446 5.77973 2.44599C4.6899 2.63392 3.62913 2.96329 2.62454 3.42538C2.61595 3.42866 2.60876 3.43483 2.6042 3.44282C0.595035 6.44494 0.043822 9.37344 0.3141 12.2651C0.315069 12.2787 0.323788 12.2923 0.334444 12.301C1.50441 13.1676 2.81305 13.8293 4.20456 14.2578C4.21438 14.2609 4.22494 14.2608 4.2347 14.2575C4.24445 14.2542 4.2529 14.2479 4.25881 14.2394C4.55718 13.8326 4.82262 13.4034 5.05124 12.952C5.056 12.9427 5.05764 12.9321 5.05589 12.9218C5.05414 12.9115 5.04911 12.902 5.04155 12.8948C5.03654 12.8901 5.03061 12.8865 5.02411 12.8842C4.60674 12.7238 4.20252 12.531 3.81513 12.3078C3.80431 12.3016 3.79626 12.2916 3.79265 12.2797C3.78905 12.2678 3.79015 12.2549 3.79575 12.2438C3.79905 12.2366 3.80403 12.2303 3.81028 12.2254C3.89166 12.1644 3.97303 12.1004 4.05053 12.0365C4.05738 12.031 4.06559 12.0275 4.07429 12.0263C4.083 12.0251 4.09186 12.0263 4.09994 12.0297C6.63707 13.1883 9.38344 13.1883 11.8896 12.0297C11.8979 12.0261 11.9071 12.0248 11.9162 12.026C11.9252 12.0272 11.9338 12.0308 11.9409 12.0365C12.0184 12.1004 12.0998 12.1644 12.1812 12.2254C12.1878 12.2302 12.1931 12.2366 12.1966 12.244C12.2001 12.2513 12.2017 12.2595 12.2014 12.2676C12.201 12.2758 12.1986 12.2837 12.1944 12.2907C12.1902 12.2977 12.1843 12.3036 12.1773 12.3078C11.7908 12.5331 11.386 12.7256 10.9673 12.8832C10.9607 12.8856 10.9546 12.8895 10.9496 12.8945C10.9445 12.8995 10.9407 12.9056 10.9383 12.9123C10.936 12.9187 10.9351 12.9256 10.9356 12.9324C10.9361 12.9392 10.938 12.9459 10.9412 12.952C11.1737 13.4024 11.4401 13.8326 11.7326 14.2394C11.7385 14.2479 11.747 14.2542 11.7567 14.2575C11.7665 14.2608 11.7771 14.2609 11.7869 14.2578C13.1807 13.8306 14.4915 13.1689 15.6628 12.301C15.6687 12.2969 15.6736 12.2916 15.6771 12.2854C15.6806 12.2792 15.6827 12.2723 15.6832 12.2651C16.0067 8.92201 15.1416 6.01773 13.3911 3.44379C13.3894 3.43954 13.3867 3.4357 13.3834 3.43253C13.38 3.42936 13.3761 3.42693 13.3717 3.42538ZM5.43002 10.504C4.66568 10.504 4.03697 9.8026 4.03697 8.94236C4.03697 8.08115 4.65406 7.37978 5.43002 7.37978C6.21179 7.37978 6.83469 8.08696 6.82306 8.94236C6.82306 9.8026 6.20598 10.504 5.43002 10.504ZM10.5798 10.504C9.81647 10.504 9.18679 9.8026 9.18679 8.94236C9.18679 8.08115 9.80388 7.37978 10.5798 7.37978C11.3616 7.37978 11.9855 8.08696 11.9729 8.94236C11.9729 9.8026 11.3616 10.504 10.5798 10.504Z" fill="#727272"/>
</svg>
