<svg width="26" height="26" viewBox="0 0 26 26" fill="none" xmlns="http://www.w3.org/2000/svg">
<path d="M3 9.85714C3 7.45692 3 6.25681 3.46711 5.34004C3.878 4.53363 4.53363 3.878 5.34004 3.46711C6.25681 3 7.45692 3 9.85714 3H16.1429C18.5431 3 19.7432 3 20.66 3.46711C21.4664 3.878 22.122 4.53363 22.5329 5.34004C23 6.25681 23 7.45692 23 9.85714V16.1429C23 18.5431 23 19.7432 22.5329 20.66C22.122 21.4664 21.4664 22.122 20.66 22.5329C19.7432 23 18.5431 23 16.1429 23H9.85714C7.45692 23 6.25681 23 5.34004 22.5329C4.53363 22.122 3.878 21.4664 3.46711 20.66C3 19.7432 3 18.5431 3 16.1429V9.85714Z" fill="#5865F2"/>
<path d="M18.3461 8.33813C17.3492 7.89994 16.2832 7.58147 15.1689 7.40015C15.032 7.63261 14.8721 7.94527 14.7619 8.194C13.5773 8.02663 12.4036 8.02663 11.2408 8.194C11.1306 7.94527 10.967 7.63261 10.829 7.40015C9.71339 7.58147 8.64627 7.9011 7.64941 8.34046C5.63871 11.1951 5.09364 13.9788 5.36618 16.723C6.69978 17.6587 7.99219 18.227 9.2628 18.599C9.57652 18.1934 9.85632 17.7622 10.0974 17.3077C9.6383 17.1438 9.19861 16.9416 8.78314 16.7067C8.89337 16.6301 9.00117 16.5498 9.10534 16.4673C11.6393 17.5808 14.3925 17.5808 16.8962 16.4673C17.0015 16.5498 17.1094 16.6301 17.2184 16.7067C16.8017 16.9427 16.3608 17.1449 15.9017 17.3088C16.1428 17.7622 16.4213 18.1945 16.7363 18.6001C18.0081 18.2282 19.3017 17.6599 20.6353 16.723C20.9551 13.5418 20.089 10.7836 18.3461 8.33813ZM10.4426 15.0354C9.6819 15.0354 9.0581 14.3682 9.0581 13.5558C9.0581 12.7433 9.66857 12.075 10.4426 12.075C11.2166 12.075 11.8404 12.7421 11.827 13.5558C11.8283 14.3682 11.2166 15.0354 10.4426 15.0354ZM15.559 15.0354C14.7983 15.0354 14.1744 14.3682 14.1744 13.5558C14.1744 12.7433 14.785 12.075 15.559 12.075C16.3329 12.075 16.9567 12.7421 16.9434 13.5558C16.9434 14.3682 16.3329 15.0354 15.559 15.0354Z" fill="white"/>
</svg>
