<svg width="26" height="26" viewBox="0 0 26 26" fill="none" xmlns="http://www.w3.org/2000/svg">
<path d="M9.27767 21.2146C6.96696 21.2146 4.81298 20.5425 3 19.3828C4.53928 19.4824 7.25576 19.2439 8.94541 17.6322C6.40363 17.5156 5.25733 15.5662 5.10781 14.7331C5.32378 14.8164 6.35379 14.9163 6.93524 14.6831C4.01136 13.95 3.56281 11.384 3.66248 10.6009C4.21071 10.9841 5.14104 11.1174 5.50652 11.0841C2.78199 9.13465 3.76216 6.20215 4.24394 5.569C6.19916 8.27781 9.12943 9.79918 12.7546 9.88381C12.6862 9.58403 12.6501 9.27193 12.6501 8.95137C12.6501 6.65084 14.5096 4.78589 16.8034 4.78589C18.0018 4.78589 19.0817 5.295 19.8398 6.10935C20.6406 5.92168 21.8459 5.48237 22.4352 5.10247C22.1382 6.16883 21.2135 7.05839 20.6542 7.3881C20.6497 7.37684 20.6589 7.39932 20.6542 7.3881C21.1455 7.31379 22.4748 7.05831 23 6.70201C22.7403 7.30108 21.76 8.29714 20.9555 8.85479C21.1052 15.456 16.0546 21.2146 9.27767 21.2146Z" fill="#47ACDF"/>
</svg>
