<svg width="30" height="30" viewBox="0 0 30 30" fill="none" xmlns="http://www.w3.org/2000/svg">
<path d="M9.8 10.5999V13.3999H8.6C7.716 13.3999 7 14.1159 7 14.9999V22.9999C7 23.8839 7.716 24.5999 8.6 24.5999H21.4C22.284 24.5999 23 23.8839 23 22.9999V14.9999C23 14.1159 22.284 13.3999 21.4 13.3999H20.2V10.5999C20.2 7.7279 17.872 5.3999 15 5.3999C12.128 5.3999 9.8 7.7279 9.8 10.5999ZM11.8 13.3999V10.5999C11.8 8.8327 13.2328 7.3999 15 7.3999C16.7672 7.3999 18.2 8.8327 18.2 10.5999V13.3999H11.8ZM13.4 17.7999C13.4 16.9159 14.116 16.1999 15 16.1999C15.884 16.1999 16.6 16.9159 16.6 17.7999C16.6 18.3607 16.3112 18.8551 15.8736 19.1407L15.8672 19.1447C15.8672 19.1447 16.0232 20.0887 16.1992 21.2007V21.2015C16.1992 21.5327 15.9312 21.8007 15.6 21.8007C15.5992 21.8007 15.5992 21.8007 15.5984 21.8007H14.3992H14.3984C14.0672 21.8007 13.7992 21.5327 13.7992 21.2015V21.2007L14.1312 19.1447C13.688 18.8559 13.3984 18.3615 13.3984 17.8007L13.4 17.7999Z" fill="#727272"/>
</svg>
