<svg width="24" height="24" viewBox="0 0 17 16" fill="none" xmlns="http://www.w3.org/2000/svg">
<g clip-path="url(#clip0_14801_259015)">
<path d="M16.029 8.04446C16.029 3.99633 12.7675 0.714844 8.74489 0.714844C4.72044 0.715754 1.45898 3.99633 1.45898 8.04537C1.45898 11.7029 4.12314 14.7349 7.60493 15.2848V10.1632H5.7566V8.04537H7.60676V6.42921C7.60676 4.59271 8.69482 3.5784 10.3583 3.5784C11.1559 3.5784 11.989 3.72135 11.989 3.72135V5.52416H11.0703C10.1662 5.52416 9.88394 6.08959 9.88394 6.66959V8.04446H11.9035L11.5811 10.1623H9.88303V15.2839C13.3648 14.734 16.029 11.702 16.029 8.04446Z" fill="#727272"/>
</g>
<defs>
<clipPath id="clip0_14801_259015">
<rect width="16" height="16" fill="white" transform="translate(0.744141)"/>
</clipPath>
</defs>
</svg>
