<svg width="24" height="24" viewBox="0 0 17 16" fill="none" xmlns="http://www.w3.org/2000/svg">
<path d="M15.0976 6.77378C15.1769 7.23018 15.2164 7.6926 15.2157 8.15584C15.2157 10.2247 14.4763 11.9739 13.1894 13.1579H13.1911C12.0657 14.1974 10.5188 14.7992 8.68454 14.7992C6.88113 14.7992 5.15158 14.0828 3.87637 12.8076C2.60117 11.5324 1.88477 9.80286 1.88477 7.99944C1.88477 6.19603 2.60117 4.46648 3.87637 3.19128C5.15158 1.91607 6.88113 1.19967 8.68454 1.19967C10.3725 1.1799 12.0027 1.81406 13.2336 2.96931L11.2923 4.91065C10.5905 4.2417 9.65393 3.87537 8.68454 3.89068C6.91065 3.89068 5.40365 5.08744 4.86647 6.69899C4.58165 7.54344 4.58165 8.458 4.86647 9.30245H4.86902C5.40875 10.9114 6.9132 12.1082 8.68709 12.1082C9.60336 12.1082 10.3904 11.8736 11.0007 11.4588H10.9982C11.3525 11.2241 11.6556 10.9199 11.8892 10.5648C12.1228 10.2097 12.282 9.81091 12.3573 9.39255H8.68454V6.77463H15.0976V6.77378Z" fill="#727272"/>
</svg>
