<svg width="25" height="26" viewBox="0 0 25 26" fill="none" xmlns="http://www.w3.org/2000/svg">
<path d="M12.5 3.85596C7.32031 3.85596 3.125 8.05129 3.125 13.231C3.125 17.3795 5.80859 20.8834 9.53516 22.1256C10.0039 22.2076 10.1797 21.9263 10.1797 21.6803C10.1797 21.4576 10.168 20.7193 10.168 19.9341C7.8125 20.3677 7.20312 19.3599 7.01562 18.8326C6.91016 18.563 6.45312 17.731 6.05469 17.5084C5.72656 17.3326 5.25781 16.899 6.04297 16.8873C6.78125 16.8755 7.30859 17.567 7.48438 17.8482C8.32812 19.2662 9.67578 18.8677 10.2148 18.6216C10.2969 18.0123 10.543 17.6021 10.8125 17.3677C8.72656 17.1334 6.54688 16.3248 6.54688 12.7388C6.54688 11.7193 6.91016 10.8755 7.50781 10.2193C7.41406 9.98489 7.08594 9.02395 7.60156 7.73488C7.60156 7.73488 8.38672 7.48878 10.1797 8.69582C10.9297 8.48488 11.7266 8.37941 12.5234 8.37941C13.3203 8.37941 14.1172 8.48488 14.8672 8.69582C16.6602 7.47707 17.4453 7.73488 17.4453 7.73488C17.9609 9.02395 17.6328 9.98489 17.5391 10.2193C18.1367 10.8755 18.5 11.7076 18.5 12.7388C18.5 16.3365 16.3086 17.1334 14.2227 17.3677C14.5625 17.6607 14.8555 18.2232 14.8555 19.1021C14.8555 20.356 14.8438 21.3638 14.8438 21.6803C14.8438 21.9263 15.0195 22.2193 15.4883 22.1256C17.3495 21.4974 18.9668 20.3013 20.1125 18.7057C21.2583 17.1101 21.8747 15.1953 21.875 13.231C21.875 8.05129 17.6797 3.85596 12.5 3.85596Z" fill="#E8E8E8"/>
</svg>
