<svg width="30" height="31" viewBox="0 0 30 31" fill="none" xmlns="http://www.w3.org/2000/svg">
<path fill-rule="evenodd" clip-rule="evenodd" d="M22.8263 12.875C21.6238 12.875 20.6509 13.8479 20.6509 15.0487C20.6509 16.2286 21.5925 17.1902 22.7681 17.2215H22.8846C24.0584 17.1902 25 16.2286 25 15.0487C25 13.8479 24.0262 12.875 22.8263 12.875ZM15 12.875C13.7984 12.875 12.8263 13.8479 12.8263 15.0487C12.8263 16.2286 13.7671 17.1902 14.9417 17.2215H15.0582C16.2329 17.1902 17.1737 16.2286 17.1737 15.0487C17.1737 13.8479 16.2016 12.875 15 12.875ZM7.1737 12.875C5.97295 12.875 5 13.8479 5 15.0487C5 16.2286 5.94164 17.1902 7.11544 17.2215H7.23195C8.40748 17.1902 9.35 16.2286 9.35 15.0487C9.35 13.8479 8.37531 12.875 7.1737 12.875Z" fill="#727272"/>
</svg>
