<svg width="26" height="26" viewBox="0 0 26 26" fill="none" xmlns="http://www.w3.org/2000/svg">
<circle cx="13.125" cy="13" r="12.5" fill="#363636"/>
<path fill-rule="evenodd" clip-rule="evenodd" d="M17.7221 8.40174C17.3412 8.02091 16.7237 8.02096 16.3428 8.40186L13.1261 11.6186L9.97067 8.46314C9.58984 8.0823 8.97233 8.08235 8.59144 8.46325C8.21054 8.84415 8.21049 9.46165 8.59132 9.84249L11.7468 12.9979L8.52978 16.2149C8.14888 16.5958 8.14883 17.2133 8.52967 17.5941C8.9105 17.975 9.52801 17.9749 9.90891 17.594L13.1259 14.377L16.281 17.5322C16.6618 17.913 17.2793 17.913 17.6602 17.5321C18.0411 17.1512 18.0412 16.5337 17.6604 16.1528L14.5052 12.9977L17.7219 9.78098C18.1028 9.40008 18.1029 8.78258 17.7221 8.40174Z" fill="#E8E8E8"/>
</svg>
