<svg width="25" height="25" viewBox="0 0 25 25" fill="none" xmlns="http://www.w3.org/2000/svg">
<circle cx="12.5" cy="12.5" r="12.5" fill="#0584FE"/>
<path d="M7.83574 16.4878H17.1653C17.7663 16.4878 18.1339 16.1463 18.1339 15.6341C18.1339 14.9878 17.5737 14.4329 17.0486 13.9085C16.6344 13.4878 16.541 12.6098 16.4652 11.7988C16.3718 9.56707 15.7475 7.9939 14.2363 7.42683C13.9971 6.62195 13.3611 6 12.4976 6C11.6399 6 11.0039 6.62195 10.7589 7.42683C9.25355 7.9939 8.62341 9.56707 8.53589 11.7988C8.46004 12.6098 8.36085 13.4878 7.95243 13.9085C7.42731 14.4329 6.86719 14.9878 6.86719 15.6341C6.86719 16.1463 7.23477 16.4878 7.83574 16.4878ZM12.4976 19C13.5362 19 14.2888 18.2256 14.3647 17.3415H10.6364C10.7122 18.2256 11.4649 19 12.4976 19Z" fill="#E8E8E8"/>
</svg>
