<svg width="25" height="26" viewBox="0 0 25 26" fill="none" xmlns="http://www.w3.org/2000/svg">
<circle cx="12.5" cy="13" r="12.5" fill="#0584FE"/>
<path fill-rule="evenodd" clip-rule="evenodd" d="M6.12454 9.19249H12.4995C14.6417 9.19339 16.784 9.19327 18.9266 9.19215C19.5729 9.19182 20.0344 8.72692 20.0367 8.07768C20.0367 8.02162 20.037 7.96555 20.0373 7.90949C20.0378 7.79736 20.0383 7.68522 20.0367 7.57309C20.0287 6.97633 19.5624 6.50202 18.9673 6.50135C14.6557 6.49955 10.344 6.49955 6.03236 6.50135C5.78298 6.4985 5.5408 6.58493 5.34956 6.74501C5.15832 6.9051 5.03063 7.12829 4.98955 7.37429C4.95979 7.54711 4.96149 7.72592 4.96319 7.90388C4.96359 7.94518 4.96398 7.98644 4.96398 8.02756C4.96163 8.7461 5.40836 9.19249 6.12454 9.19249ZM12.5072 10.2697H18.6968C18.9481 10.2697 18.9602 10.2818 18.9602 10.5388V18.5651C18.9602 19.6776 18.1394 20.4997 17.0283 20.5001H7.97732C6.8642 20.5001 6.04071 19.6796 6.04037 18.5702V10.527C6.04037 10.2842 6.05484 10.2697 6.29872 10.2697H12.5072ZM13.0417 13.7349V13.9451V17.2263C13.0417 17.6047 12.739 17.8712 12.3985 17.7998C12.1355 17.7453 11.9652 17.5257 11.9652 17.2364C11.9639 16.1429 11.9639 15.0493 11.9652 13.9555V13.7423C11.9457 13.7591 11.9283 13.7735 11.9125 13.7865L11.9125 13.7865C11.8845 13.8097 11.8617 13.8286 11.8408 13.8492C11.4775 14.209 11.1153 14.569 10.7542 14.9294C10.5157 15.1669 10.2012 15.18 9.97649 14.963C9.75178 14.7461 9.75279 14.4174 9.98557 14.1829C10.6969 13.4667 11.411 12.7532 12.1277 12.0425C12.345 11.8265 12.6609 11.8292 12.8806 12.0472C13.5935 12.755 14.3037 13.4643 15.0113 14.1752C15.2518 14.4171 15.2511 14.7498 15.0227 14.9684C14.8004 15.1814 14.4845 15.1639 14.2446 14.9244C13.8908 14.5723 13.5372 14.2199 13.184 13.8674C13.1639 13.8477 13.143 13.8286 13.1185 13.8061C13.0965 13.786 13.0717 13.7632 13.0417 13.7349Z" fill="#E8E8E8"/>
</svg>
