<svg width="26" height="26" viewBox="0 0 26 26" fill="none" xmlns="http://www.w3.org/2000/svg">
<circle cx="13.0039" cy="13.0156" r="12.5" fill="#0584FE"/>
<path d="M13.8852 20.2576C14.9458 20.2576 15.9435 20.0528 16.8781 19.6433C17.8127 19.239 18.6344 18.6798 19.3433 17.9657C20.0574 17.2569 20.6166 16.4378 21.0209 15.5084C21.4252 14.5738 21.6273 13.5761 21.6273 12.5155C21.6273 11.4549 21.4225 10.4599 21.013 9.53049C20.6087 8.59587 20.0495 7.77151 19.3354 7.05742C18.6266 6.34333 17.8048 5.78675 16.8702 5.3877C15.9356 4.9834 14.938 4.78125 13.8773 4.78125C12.8902 4.78125 11.9582 4.95452 11.0813 5.30107C10.2097 5.64761 9.42737 6.1333 8.73428 6.75813C8.04119 7.37771 7.47412 8.1023 7.03306 8.93191C6.592 9.75627 6.31634 10.6463 6.20608 11.6019C6.45286 11.5441 6.72327 11.51 7.01731 11.4995C7.3166 11.4837 7.60013 11.4995 7.86792 11.5467C7.97818 10.8169 8.20921 10.1396 8.56101 9.51474C8.9128 8.8899 9.35648 8.34646 9.89205 7.8844C10.4276 7.41709 11.0341 7.05479 11.7114 6.79751C12.3888 6.53498 13.1107 6.40371 13.8773 6.40371C14.7227 6.40371 15.5155 6.56123 16.2559 6.87627C16.9962 7.19131 17.6447 7.62974 18.2013 8.19157C18.7631 8.74814 19.2015 9.3966 19.5165 10.1369C19.8368 10.8773 19.997 11.6701 19.997 12.5155C19.997 13.3294 19.8473 14.096 19.548 14.8153C19.254 15.5346 18.8471 16.1647 18.3273 16.7055C18.07 16.422 17.7261 16.1595 17.2955 15.9179C16.865 15.6712 16.3609 15.4743 15.7833 15.3272C15.2057 15.1802 14.5704 15.1067 13.8773 15.1067C13.5518 15.1067 13.2367 15.1251 12.9322 15.1618C12.6329 15.1933 12.3467 15.2432 12.0737 15.3115C12.163 15.6633 12.2076 16.0308 12.2076 16.4141C12.2076 17.0337 12.0947 17.6192 11.8689 18.1705C11.6484 18.727 11.3412 19.2232 10.9474 19.659C11.4042 19.8533 11.8768 20.0003 12.3651 20.1001C12.8587 20.2051 13.3654 20.2576 13.8852 20.2576ZM13.8773 13.8938C14.3604 13.8991 14.7936 13.7783 15.1769 13.5315C15.5654 13.2795 15.8726 12.9408 16.0984 12.5155C16.3294 12.0849 16.4449 11.6045 16.4449 11.0742C16.4449 10.5754 16.3294 10.1159 16.0984 9.69588C15.8726 9.27583 15.5654 8.93979 15.1769 8.68775C14.7883 8.43572 14.3551 8.30971 13.8773 8.30971C13.3943 8.30971 12.9584 8.43572 12.5699 8.68775C12.1866 8.93979 11.8794 9.27583 11.6484 9.69588C11.4174 10.1159 11.3045 10.5754 11.3097 11.0742C11.3097 11.6045 11.4226 12.0823 11.6484 12.5076C11.8794 12.9329 12.1866 13.269 12.5699 13.5158C12.9584 13.7625 13.3943 13.8885 13.8773 13.8938ZM7.27722 20.2812C7.79703 20.2812 8.2906 20.1789 8.75791 19.9741C9.22522 19.7746 9.63477 19.4963 9.98657 19.1392C10.3436 18.7822 10.6219 18.37 10.8214 17.9027C11.0262 17.4406 11.1286 16.9471 11.1286 16.422C11.1286 15.7132 10.9553 15.0673 10.6088 14.4845C10.2622 13.9017 9.79492 13.437 9.20684 13.0904C8.62402 12.7387 7.98081 12.5628 7.27722 12.5628C6.56838 12.5628 5.92254 12.7387 5.33972 13.0904C4.75689 13.437 4.29221 13.9017 3.94566 14.4845C3.59387 15.0673 3.41797 15.7132 3.41797 16.422C3.41797 16.9471 3.52036 17.4433 3.72513 17.9106C3.92466 18.3779 4.20295 18.7874 4.55999 19.1392C4.91179 19.4963 5.31871 19.7746 5.78077 19.9741C6.24808 20.1789 6.7469 20.2812 7.27722 20.2812ZM6.82828 18.6903C6.74952 18.6903 6.66814 18.6745 6.58413 18.643C6.50012 18.6168 6.43186 18.5722 6.37935 18.5091L4.9853 16.9891C4.94329 16.9471 4.90916 16.8919 4.88291 16.8237C4.85665 16.7554 4.84353 16.6872 4.84353 16.6189C4.84353 16.4456 4.89866 16.3091 5.00892 16.2093C5.12444 16.1096 5.25571 16.0597 5.40272 16.0597C5.49199 16.0597 5.57075 16.0755 5.63901 16.107C5.71251 16.1385 5.7729 16.1805 5.82015 16.233L6.7889 17.2962L8.6634 14.6972C8.78416 14.5344 8.94168 14.453 9.13596 14.453C9.28823 14.453 9.41949 14.5055 9.52976 14.6105C9.64002 14.7155 9.69515 14.8494 9.69515 15.0122C9.69515 15.0542 9.68465 15.1041 9.66365 15.1618C9.6479 15.2196 9.62164 15.2747 9.58489 15.3272L7.27722 18.4855C7.17745 18.622 7.02781 18.6903 6.82828 18.6903Z" fill="#E8E8E8"/>
</svg>
