<svg width="25" height="26" viewBox="0 0 25 26" fill="none" xmlns="http://www.w3.org/2000/svg">
<circle cx="12.5" cy="13" r="12.5" fill="#00962D"/>
<path d="M7.78585 19C5.65639 19 3.92871 17.2723 3.92871 15.1429C3.92871 13.4607 5.0055 12.0304 6.5055 11.5027C6.50282 11.4304 6.50014 11.358 6.50014 11.2857C6.50014 8.91786 8.418 7 10.7859 7C12.3742 7 13.7591 7.8625 14.501 9.14821C14.9082 8.875 15.401 8.71429 15.9287 8.71429C17.3484 8.71429 18.5001 9.86607 18.5001 11.2857C18.5001 11.6125 18.4385 11.9232 18.3287 12.2125C19.893 12.5286 21.0716 13.9134 21.0716 15.5714C21.0716 17.4652 19.5367 19 17.643 19H7.78585ZM9.90192 13.1875C9.65014 13.4393 9.65014 13.8464 9.90192 14.0955C10.1537 14.3446 10.5609 14.3473 10.81 14.0955L11.8546 13.0509V16.6429C11.8546 16.9991 12.1412 17.2857 12.4975 17.2857C12.8537 17.2857 13.1403 16.9991 13.1403 16.6429V13.0509L14.185 14.0955C14.4367 14.3473 14.8439 14.3473 15.093 14.0955C15.3421 13.8437 15.3448 13.4366 15.093 13.1875L12.9501 11.0446C12.6984 10.7929 12.2912 10.7929 12.0421 11.0446L9.89925 13.1875H9.90192Z" fill="#E8E8E8"/>
</svg>
