<svg width="20" height="20" viewBox="0 0 20 20" fill="none" xmlns="http://www.w3.org/2000/svg">
<path d="M3.88156 16C4.13929 16 4.34704 15.9185 4.50483 15.7554C4.66788 15.5924 4.74941 15.382 4.74941 15.1243C4.74941 14.977 4.74415 14.8218 4.73363 14.6588C4.72311 14.4905 4.71785 14.2985 4.71785 14.0828C4.71785 13.2886 4.82042 12.6443 5.02554 12.1499C5.23067 11.6555 5.56992 11.2952 6.0433 11.069C6.51667 10.8376 7.14783 10.7219 7.93679 10.7219H12.639L14.4062 10.6114L12.3076 12.5207L10.6508 14.2012C10.5666 14.2801 10.4983 14.3721 10.4457 14.4773C10.3983 14.5825 10.3747 14.7009 10.3747 14.8323C10.3747 15.069 10.4562 15.2663 10.6192 15.4241C10.7823 15.5871 10.99 15.6686 11.2425 15.6686C11.4792 15.6686 11.6896 15.5766 11.8737 15.3925L16.781 10.501C16.9703 10.3169 17.065 10.096 17.065 9.83826C17.065 9.5858 16.9703 9.36752 16.781 9.18343L11.8895 4.29191C11.6948 4.0973 11.4792 4 11.2425 4C10.99 4 10.7823 4.08153 10.6192 4.24458C10.4562 4.40237 10.3747 4.60224 10.3747 4.84418C10.3747 4.97567 10.3983 5.09402 10.4457 5.19921C10.4983 5.3044 10.5666 5.39645 10.6508 5.47535L12.3076 7.15582L14.4062 9.0572L12.639 8.95464H7.81055C6.10641 8.95464 4.86775 9.36752 4.09458 10.1933C3.3214 11.0191 2.93481 12.3024 2.93481 14.0434C2.93481 14.259 2.94007 14.4642 2.95059 14.6588C2.96637 14.8481 2.98741 15.027 3.01371 15.1953C3.03475 15.3268 3.07683 15.453 3.13994 15.574C3.20832 15.6949 3.30299 15.7949 3.42397 15.8738C3.54494 15.9579 3.69747 16 3.88156 16Z" fill="#727272"/>
</svg>
