<svg width="25" height="26" viewBox="0 0 25 26" fill="none" xmlns="http://www.w3.org/2000/svg">
<circle cx="12.5" cy="13" r="12.5" fill="#4D08A4"/>
<path d="M6.74142 12.0193C6.66568 12.1045 6.60651 12.1968 6.5639 12.2962C6.5213 12.3956 6.5 12.5021 6.5 12.6157C6.5 12.7814 6.53787 12.9282 6.61361 13.056C6.68935 13.1838 6.79112 13.2856 6.91893 13.3613C7.04674 13.4418 7.19112 13.482 7.35207 13.482C7.58402 13.482 7.78994 13.3921 7.96982 13.2122L12.8195 8.23468L12.1876 8.23468L17.0302 13.2122C17.2101 13.3921 17.416 13.482 17.6479 13.482C17.8089 13.482 17.9533 13.4418 18.0811 13.3613C18.2089 13.2856 18.3107 13.1838 18.3864 13.056C18.4621 12.9282 18.5 12.7814 18.5 12.6157C18.5 12.3885 18.4172 12.1921 18.2515 12.0264L13.1746 6.82876C13.0799 6.72935 12.9757 6.65361 12.8621 6.60154C12.7485 6.54947 12.6278 6.52344 12.5 6.52344C12.2491 6.52344 12.0266 6.62521 11.8325 6.82876L6.74142 12.0193ZM6.74142 18.0264C6.66568 18.1069 6.60651 18.1968 6.5639 18.2962C6.5213 18.3956 6.5 18.5045 6.5 18.6228C6.5 18.7838 6.53787 18.9282 6.61361 19.056C6.68935 19.1838 6.79112 19.2856 6.91893 19.3613C7.04674 19.4418 7.19112 19.482 7.35207 19.482C7.58402 19.482 7.78994 19.3921 7.96982 19.2122L12.8195 14.2418L12.1876 14.2418L17.0302 19.2122C17.2101 19.3921 17.416 19.482 17.6479 19.482C17.8089 19.482 17.9533 19.4418 18.0811 19.3613C18.2089 19.2856 18.3107 19.1838 18.3864 19.056C18.4621 18.9282 18.5 18.7838 18.5 18.6228C18.5 18.3909 18.4172 18.1921 18.2515 18.0264L13.1746 12.8288C13.0799 12.7294 12.9757 12.6536 12.8621 12.6015C12.7485 12.5495 12.6278 12.5234 12.5 12.5234C12.2491 12.5234 12.0266 12.6252 11.8325 12.8288L6.74142 18.0264Z" fill="#E8E8E8"/>
</svg>
