<svg width="26" height="26" viewBox="0 0 26 26" fill="none" xmlns="http://www.w3.org/2000/svg">
<circle cx="13.125" cy="13" r="12.5" fill="#00962D"/>
<path fill-rule="evenodd" clip-rule="evenodd" d="M17.2137 7.72761C17.5807 8.05637 17.6118 8.62044 17.283 8.98749L13.872 12.7959C13.5432 13.163 12.9791 13.194 12.6121 12.8653C12.245 12.5365 12.214 11.9724 12.5427 11.6054L15.9538 7.79696C16.2826 7.4299 16.8466 7.39886 17.2137 7.72761ZM21.5042 8.12567C21.875 8.45015 21.9126 9.01382 21.5881 9.38466L13.8788 18.1953C13.7162 18.3812 13.4839 18.4913 13.2371 18.4995C12.9902 18.5077 12.7511 18.4133 12.5765 18.2387L9.27248 14.9347C8.92405 14.5862 8.92405 14.0213 9.27248 13.6729C9.62091 13.3245 10.1858 13.3245 10.5343 13.6729L13.1639 16.3025L20.2452 8.2096C20.5697 7.83876 21.1334 7.80118 21.5042 8.12567ZM4.70078 13.6729C5.04921 13.3245 5.61413 13.3245 5.96256 13.6729L9.26655 16.9769C9.61498 17.3253 9.61498 17.8902 9.26655 18.2387C8.91812 18.5871 8.3532 18.5871 8.00477 18.2387L4.70078 14.9347C4.35234 14.5862 4.35235 14.0213 4.70078 13.6729Z" fill="#E8E8E8"/>
</svg>
