<svg width="25" height="26" viewBox="0 0 25 26" fill="none" xmlns="http://www.w3.org/2000/svg">
<circle cx="12.5" cy="13" r="12.5" fill="#D8292F"/>
<path d="M8.28451 19.5H14.58C15.2616 19.5 15.7863 19.3141 16.1539 18.9423C16.5216 18.5747 16.7054 18.0459 16.7054 17.3561V14.9271H15.0262V17.1454C15.0262 17.3684 14.9725 17.5357 14.8651 17.6473C14.7577 17.7588 14.5862 17.8146 14.3508 17.8146H8.50758C8.27625 17.8146 8.10688 17.7588 7.99947 17.6473C7.89207 17.5357 7.83837 17.3684 7.83837 17.1454V8.84843C7.83837 8.62949 7.89207 8.46425 7.99947 8.35272C8.10688 8.23705 8.27625 8.17922 8.50758 8.17922H14.3508C14.5862 8.17922 14.7577 8.23705 14.8651 8.35272C14.9725 8.46425 15.0262 8.62949 15.0262 8.84843V11.0977H16.7054V8.63775C16.7054 7.95202 16.5216 7.42533 16.1539 7.05767C15.7863 6.68589 15.2616 6.5 14.58 6.5H8.28451C7.60291 6.5 7.07621 6.68589 6.70443 7.05767C6.33678 7.42533 6.15295 7.95202 6.15295 8.63775V17.3561C6.15295 18.0459 6.33678 18.5747 6.70443 18.9423C7.07621 19.3141 7.60291 19.5 8.28451 19.5ZM12.5042 13.7312H18.1182L18.9733 13.6692L18.5023 13.948L17.8083 14.6049C17.6679 14.7329 17.5977 14.892 17.5977 15.082C17.5977 15.2431 17.6534 15.3897 17.765 15.5219C17.8806 15.6541 18.0293 15.7202 18.2111 15.7202C18.3763 15.7202 18.5251 15.6541 18.6572 15.5219L20.51 13.5887C20.605 13.4895 20.6711 13.3904 20.7082 13.2912C20.7496 13.1921 20.7702 13.0929 20.7702 12.9938C20.7702 12.8905 20.7496 12.7893 20.7082 12.6902C20.6711 12.591 20.605 12.494 20.51 12.399L18.6572 10.4657C18.5251 10.3335 18.3763 10.2674 18.2111 10.2674C18.0293 10.2674 17.8806 10.3335 17.765 10.4657C17.6534 10.5937 17.5977 10.7404 17.5977 10.9056C17.5977 11.0956 17.6679 11.2547 17.8083 11.3827L18.5023 12.0396L18.9733 12.3184L18.1182 12.2502H12.5042C12.3101 12.2502 12.1387 12.3225 11.9899 12.4671C11.8454 12.6117 11.7731 12.7873 11.7731 12.9938C11.7731 13.2003 11.8454 13.3759 11.9899 13.5205C12.1387 13.6609 12.3101 13.7312 12.5042 13.7312Z" fill="#E8E8E8"/>
</svg>
