<svg width="26" height="26" viewBox="0 0 26 26" fill="none" xmlns="http://www.w3.org/2000/svg">
<circle cx="13" cy="13" r="12.5" fill="#0584FE"/>
<path d="M12.4012 20H13.5979C13.8008 20 13.9737 19.9424 14.1166 19.8271C14.2642 19.7118 14.361 19.555 14.4072 19.3567L14.7323 17.9872C14.8337 17.9503 14.9352 17.9111 15.0366 17.8696C15.1381 17.8327 15.2349 17.7912 15.3271 17.7451L16.5238 18.4783C16.6898 18.5843 16.865 18.6281 17.0495 18.6097C17.2385 18.5912 17.4022 18.5128 17.5406 18.3745L18.3775 17.5375C18.5205 17.3992 18.6012 17.2355 18.6196 17.0464C18.6381 16.8528 18.5896 16.6729 18.4744 16.5069L17.7481 15.3172C17.7942 15.2204 17.8357 15.1235 17.8726 15.0267C17.9141 14.9298 17.951 14.833 17.9832 14.7362L19.3597 14.4111C19.558 14.365 19.7148 14.2704 19.8301 14.1275C19.9454 13.9845 20.003 13.8093 20.003 13.6018V12.4328C20.003 12.2345 19.9454 12.0639 19.8301 11.9209C19.7148 11.7734 19.558 11.6765 19.3597 11.6304L17.9902 11.3053C17.9579 11.1947 17.921 11.0909 17.8795 10.9941C17.838 10.8926 17.7988 10.8004 17.7619 10.7174L18.4882 9.50692C18.5989 9.3363 18.645 9.15876 18.6265 8.97431C18.6127 8.78986 18.5343 8.62615 18.3914 8.4832L17.5406 7.63933C17.3976 7.51021 17.2385 7.43412 17.0633 7.41107C16.8927 7.38801 16.722 7.4249 16.5514 7.52174L15.3271 8.27569C15.2395 8.23419 15.145 8.19499 15.0435 8.1581C14.9467 8.1166 14.8429 8.0751 14.7323 8.0336L14.4072 6.64328C14.361 6.44499 14.2642 6.28821 14.1166 6.17292C13.9737 6.05764 13.8008 6 13.5979 6H12.4012C12.1983 6 12.0231 6.05764 11.8755 6.17292C11.7326 6.28821 11.6404 6.44499 11.5989 6.64328L11.2668 8.01976C11.1654 8.06126 11.0616 8.10277 10.9556 8.14427C10.8541 8.18116 10.7573 8.22266 10.6651 8.26877L9.44767 7.52174C9.27244 7.4249 9.09952 7.38801 8.9289 7.41107C8.75828 7.43412 8.6015 7.51252 8.45854 7.64625L7.60775 8.4832C7.46019 8.62615 7.37949 8.78986 7.36566 8.97431C7.35182 9.15876 7.39794 9.3363 7.504 9.50692L8.2372 10.7174C8.20031 10.8004 8.16111 10.8926 8.11961 10.9941C8.07811 11.0909 8.03891 11.1947 8.00202 11.3053L6.63937 11.6304C6.43648 11.6765 6.27738 11.7734 6.1621 11.9209C6.05143 12.0639 5.99609 12.2345 5.99609 12.4328V13.6018C5.99609 13.8093 6.05143 13.9845 6.1621 14.1275C6.27738 14.2704 6.43648 14.365 6.63937 14.4111L8.02277 14.7362C8.05044 14.833 8.08272 14.9298 8.11961 15.0267C8.16111 15.1235 8.20492 15.2204 8.25103 15.3172L7.51783 16.5069C7.40716 16.6729 7.35874 16.8528 7.37258 17.0464C7.39102 17.2355 7.47172 17.3992 7.61467 17.5375L8.45854 18.3745C8.59688 18.5128 8.75828 18.5912 8.94273 18.6097C9.1318 18.6281 9.30933 18.5843 9.47534 18.4783L10.672 17.7451C10.7642 17.7912 10.861 17.8327 10.9625 17.8696C11.0639 17.9111 11.1654 17.9503 11.2668 17.9872L11.5989 19.3567C11.6404 19.555 11.7326 19.7118 11.8755 19.8271C12.0231 19.9424 12.1983 20 12.4012 20ZM13.003 15.2826C12.5834 15.2826 12.2006 15.1789 11.8548 14.9713C11.5089 14.7638 11.2323 14.4872 11.0247 14.1413C10.8219 13.7955 10.7204 13.4127 10.7204 12.9931C10.7204 12.5781 10.8219 12.1999 11.0247 11.8587C11.2323 11.5128 11.5089 11.2362 11.8548 11.0287C12.2006 10.8211 12.5834 10.7174 13.003 10.7174C13.4226 10.7174 13.8031 10.8211 14.1443 11.0287C14.4902 11.2362 14.7645 11.5128 14.9674 11.8587C15.1749 12.1999 15.2787 12.5781 15.2787 12.9931C15.2787 13.4127 15.1749 13.7955 14.9674 14.1413C14.7645 14.4872 14.4902 14.7638 14.1443 14.9713C13.8031 15.1789 13.4226 15.2826 13.003 15.2826Z" fill="#E8E8E8"/>
</svg>
