<svg width="25" height="26" viewBox="0 0 25 26" fill="none" xmlns="http://www.w3.org/2000/svg">
<circle cx="12.5" cy="13" r="12.5" fill="#00962D"/>
<path d="M15.0102 7.43993C15.5968 6.85336 16.5495 6.85336 17.1361 7.43993L18.0606 8.36514C18.6472 8.95153 18.6472 9.90326 18.0606 10.4899L16.9249 11.6256L13.8745 8.57562L15.0102 7.43993ZM16.3946 12.1559L10.9226 17.6255C10.6786 17.8695 10.3759 18.0502 10.045 18.1464L7.22152 18.9771C7.02394 19.0357 6.81018 18.9818 6.66446 18.8152C6.51874 18.6908 6.46426 18.4773 6.52241 18.2778L7.35292 15.455C7.45053 15.1242 7.62957 14.8215 7.87384 14.5774L13.3442 9.1064L16.3946 12.1559Z" fill="#E8E8E8"/>
</svg>
