<svg width="25" height="26" viewBox="0 0 25 26" fill="none" xmlns="http://www.w3.org/2000/svg">
<circle cx="12.5" cy="13" r="12.5" fill="#242424"/>
<path fill-rule="evenodd" clip-rule="evenodd" d="M16.1845 20.5H8.81579C8.07162 20.5 7.50499 20.3054 7.11588 19.9163C6.72678 19.5272 6.53223 18.9557 6.53223 18.2018V7.81274C6.53223 7.05399 6.72678 6.48006 7.11588 6.09095C7.50499 5.69698 8.07162 5.5 8.81579 5.5H11.9675V10.7821C11.9675 11.6333 12.3907 12.0589 13.237 12.0589H18.468V18.2018C18.468 18.9557 18.2735 19.5272 17.8844 19.9163C17.5001 20.3054 16.9335 20.5 16.1845 20.5ZM18.3951 11.0229H13.4048C13.1324 11.0229 12.9962 10.8891 12.9962 10.6216V5.56566C13.1616 5.58998 13.3245 5.66051 13.485 5.77724C13.6504 5.88911 13.8207 6.03502 13.9957 6.21498L17.753 10.0161C17.9379 10.2057 18.0862 10.3808 18.1981 10.5413C18.3148 10.7018 18.3805 10.8624 18.3951 11.0229ZM15.341 15.6515C15.1082 15.4264 14.7925 15.3 14.4633 15.3H13.5079C13.2794 15.3 13.0941 15.1209 13.0941 14.9C13.0941 14.6791 13.2794 14.5 13.5079 14.5H14.4633C15.012 14.5 15.5382 14.7107 15.9262 15.0858C16.3142 15.4609 16.5322 15.9696 16.5322 16.5C16.5322 17.0304 16.3142 17.5391 15.9262 17.9142C15.5382 18.2893 15.012 18.5 14.4633 18.5H13.4864C13.2578 18.5 13.0726 18.3209 13.0726 18.1C13.0726 17.8791 13.2578 17.7 13.4864 17.7L14.4633 17.7C14.7925 17.7 15.1082 17.5736 15.341 17.3485C15.5739 17.1235 15.7046 16.8183 15.7046 16.5C15.7046 16.1817 15.5739 15.8765 15.341 15.6515ZM11.5565 14.5C11.7851 14.5 11.9703 14.6791 11.9703 14.9C11.9703 15.1209 11.7851 15.3 11.5565 15.3H10.6012C10.272 15.3 9.95621 15.4264 9.7234 15.6515C9.4906 15.8765 9.35981 16.1817 9.35981 16.5C9.35981 16.8183 9.4906 17.1235 9.7234 17.3485C9.95621 17.5736 10.272 17.7 10.6012 17.7H11.5781C11.8066 17.7 11.9919 17.8791 11.9919 18.1C11.9919 18.3209 11.8066 18.5 11.5781 18.5H10.6012C10.0525 18.5 9.52622 18.2893 9.13821 17.9142C8.75021 17.5391 8.53223 17.0304 8.53223 16.5C8.53223 15.9696 8.75021 15.4609 9.13821 15.0858C9.52622 14.7107 10.0525 14.5 10.6012 14.5L11.5565 14.5ZM14.031 16.1C14.2596 16.1 14.4448 16.2791 14.4448 16.5C14.4448 16.7209 14.2596 16.9 14.031 16.9L10.999 16.9C10.7704 16.9 10.5852 16.7209 10.5852 16.5C10.5852 16.2791 10.7704 16.1 10.999 16.1L14.031 16.1Z" fill="#E8E8E8"/>
</svg>
