<svg width="25" height="26" viewBox="0 0 25 26" fill="none" xmlns="http://www.w3.org/2000/svg">
<circle cx="12.5" cy="13" r="12.5" fill="#B07902"/>
<path d="M7.23881 19.9844C7.41371 19.9844 7.56329 19.9222 7.68756 19.798C7.81643 19.6737 7.88087 19.5195 7.88087 19.3354V15.7868C7.97752 15.7546 8.15472 15.7063 8.41247 15.6418C8.67021 15.5728 8.997 15.5383 9.39282 15.5383C9.98195 15.5383 10.5343 15.5981 11.0497 15.7178C11.5652 15.8374 12.0669 15.9755 12.5548 16.132C13.0427 16.2885 13.5397 16.4289 14.046 16.5531C14.5569 16.6728 15.0977 16.7326 15.6684 16.7326C16.1701 16.7326 16.5659 16.7004 16.8559 16.636C17.1459 16.5716 17.4174 16.4818 17.6706 16.3667C17.9053 16.2563 18.0871 16.1021 18.216 15.9042C18.3448 15.7017 18.4093 15.4485 18.4093 15.1448V8.68273C18.4093 8.4572 18.3333 8.2754 18.1815 8.13732C18.0296 7.99924 17.8363 7.93021 17.6015 7.93021C17.4082 7.93021 17.1551 7.97163 16.8421 8.05448C16.5291 8.13732 16.1195 8.17875 15.6132 8.17875C15.0471 8.17875 14.5109 8.11891 14.0046 7.99924C13.4983 7.87958 12.9989 7.7415 12.5065 7.58501C12.014 7.42852 11.5077 7.29045 10.9876 7.17078C10.4721 7.04651 9.91751 6.98438 9.32378 6.98438C8.8359 6.98438 8.44929 7.01659 8.16393 7.08103C7.88317 7.14086 7.60932 7.23291 7.34237 7.35718C7.10303 7.46304 6.91663 7.60572 6.78315 7.78522C6.65428 7.96473 6.58984 8.20406 6.58984 8.50323V19.3354C6.58984 19.5149 6.65198 19.6668 6.77625 19.7911C6.90512 19.9199 7.05931 19.9844 7.23881 19.9844Z" fill="#E8E8E8"/>
</svg>
