<svg width="26" height="26" viewBox="0 0 26 26" fill="none" xmlns="http://www.w3.org/2000/svg">
<circle cx="13.0078" cy="12.9688" r="12.5" fill="#B07902"/>
<path d="M12.5003 8.79699C12.3171 8.79699 12.1618 8.86061 12.0346 8.98783C11.9074 9.11506 11.8438 9.26773 11.8438 9.44585V13.3313C11.8438 13.4179 11.859 13.5018 11.8896 13.5833C11.9201 13.6647 11.9685 13.7486 12.0346 13.8352L13.7293 16.0794C13.8667 16.2525 14.0219 16.3542 14.1949 16.3848C14.373 16.4153 14.5435 16.3721 14.7064 16.255C14.859 16.1481 14.9405 16.0056 14.9506 15.8275C14.9659 15.6494 14.9176 15.4815 14.8056 15.3237L12.4697 12.1939L13.1491 14.2626V9.44585C13.1491 9.26773 13.0855 9.11506 12.9583 8.98783C12.8311 8.86061 12.6784 8.79699 12.5003 8.79699ZM12.7674 20.4688C13.7954 20.4688 14.7624 20.2728 15.6682 19.881C16.5741 19.4891 17.3705 18.9471 18.0575 18.255C18.7496 17.568 19.2891 16.7715 19.6758 15.8657C20.0677 14.9598 20.2636 13.9929 20.2636 12.9649C20.2636 11.9369 20.0677 10.9726 19.6758 10.0718C19.2891 9.16595 18.7496 8.36697 18.0575 7.67486C17.3705 6.98274 16.5741 6.4433 15.6682 6.05654C14.7624 5.66468 13.7954 5.46875 12.7674 5.46875C11.7445 5.46875 10.7802 5.66213 9.87431 6.0489C8.97355 6.43567 8.17711 6.97257 7.485 7.65959C6.79797 8.34661 6.25599 9.14051 5.85904 10.0413C5.46718 10.942 5.26871 11.9039 5.26362 12.9268H6.83614C6.84123 12.1125 6.99899 11.3492 7.30942 10.6367C7.61986 9.91913 8.04479 9.29318 8.58423 8.75883C9.12876 8.22448 9.75726 7.80717 10.4697 7.50692C11.1822 7.20157 11.9481 7.0489 12.7674 7.0489C13.5868 7.0489 14.3552 7.20157 15.0728 7.50692C15.7903 7.81226 16.4188 8.23465 16.9583 8.77409C17.5028 9.31353 17.9277 9.94203 18.2331 10.6596C18.5384 11.3771 18.6911 12.1456 18.6911 12.9649C18.6911 13.7843 18.5384 14.5527 18.2331 15.2703C17.9277 15.9878 17.5028 16.6189 16.9583 17.1634C16.4188 17.7079 15.7903 18.1329 15.0728 18.4382C14.3552 18.7436 13.5868 18.8937 12.7674 18.8886C12.1364 18.8886 11.5359 18.797 10.9659 18.6138C10.401 18.4306 9.8794 18.171 9.40103 17.8352C8.92774 17.4942 8.51044 17.0947 8.14912 16.6367C7.98627 16.4586 7.80052 16.3466 7.59187 16.3008C7.38321 16.255 7.18729 16.3034 7.00408 16.4458C6.82596 16.5731 6.72673 16.7486 6.70637 16.9726C6.6911 17.1914 6.76998 17.4051 6.94301 17.6138C7.38067 18.1787 7.90739 18.6749 8.52316 19.1023C9.13894 19.5298 9.80815 19.8632 10.5308 20.1023C11.2534 20.3466 11.999 20.4688 12.7674 20.4688ZM4.40866 11.4611C4.21528 11.4611 4.06769 11.5069 3.96591 11.5985C3.86922 11.685 3.82342 11.797 3.82851 11.9344C3.8336 12.0667 3.88958 12.2041 3.99645 12.3466L5.79797 14.8352C5.9252 15.0031 6.07278 15.0871 6.24072 15.0871C6.40866 15.0871 6.5537 15.0031 6.67584 14.8352L8.485 12.3466C8.58678 12.2092 8.63767 12.0718 8.63767 11.9344C8.64276 11.797 8.59695 11.685 8.50026 11.5985C8.40866 11.5069 8.26617 11.4611 8.07278 11.4611H4.40866Z" fill="#E8E8E8"/>
</svg>
