<svg width="26" height="26" viewBox="0 0 26 26" fill="none" xmlns="http://www.w3.org/2000/svg">
<circle cx="13" cy="13" r="12.5" fill="#363636"/>
<path fill-rule="evenodd" clip-rule="evenodd" d="M19.125 12.125H13.875V6.875C13.875 6.392 13.4839 6 13 6C12.5161 6 12.125 6.392 12.125 6.875V12.125H6.875C6.39112 12.125 6 12.517 6 13C6 13.483 6.39112 13.875 6.875 13.875H12.125V19.125C12.125 19.608 12.5161 20 13 20C13.4839 20 13.875 19.608 13.875 19.125V13.875H19.125C19.6089 13.875 20 13.483 20 13C20 12.517 19.6089 12.125 19.125 12.125Z" fill="#E8E8E8"/>
</svg>
