<svg width="25" height="26" viewBox="0 0 25 26" fill="none" xmlns="http://www.w3.org/2000/svg">
<circle cx="12.5" cy="13" r="12.5" fill="#4D08A4"/>
<path d="M12.8765 10.2514L11.8376 11.2904C12.2067 11.3268 12.5279 11.4066 12.8013 11.5296C13.0793 11.6481 13.3163 11.803 13.5122 11.9944C13.8722 12.3544 14.1114 12.7531 14.2299 13.1905C14.3529 13.6234 14.3529 14.0563 14.2299 14.4892C14.1114 14.9221 13.8722 15.3185 13.5122 15.6785L11.3523 17.8315C10.9923 18.1915 10.5959 18.4308 10.163 18.5492C9.73011 18.6723 9.29722 18.6723 8.86433 18.5492C8.43144 18.4308 8.03501 18.1915 7.67502 17.8315C7.31504 17.4716 7.07354 17.0751 6.9505 16.6422C6.83203 16.2093 6.83203 15.7765 6.9505 15.3436C7.07354 14.9107 7.31276 14.5142 7.66819 14.1543L8.70712 13.1153C8.60232 12.8647 8.53169 12.5936 8.49524 12.302C8.46334 12.0103 8.47929 11.7324 8.54308 11.4681L6.71128 13.293C6.17814 13.8262 5.82044 14.4163 5.63817 15.0633C5.46045 15.7104 5.46045 16.3597 5.63817 17.0113C5.81588 17.6584 6.17586 18.2508 6.71811 18.7885C7.25581 19.3307 7.84818 19.6907 8.49524 19.8684C9.14685 20.0461 9.79618 20.0438 10.4432 19.8616C11.0903 19.6839 11.6804 19.3284 12.2135 18.7953L14.4759 16.5329C15.0091 15.9997 15.3645 15.4096 15.5422 14.7626C15.7245 14.1155 15.7245 13.4685 15.5422 12.8214C15.3645 12.1698 15.0068 11.5752 14.4691 11.0375C14.2823 10.8552 14.059 10.6957 13.7993 10.559C13.5441 10.4223 13.2365 10.3198 12.8765 10.2514ZM12.1247 15.7537L13.1568 14.7147C12.7877 14.6783 12.4641 14.6008 12.1862 14.4823C11.9128 14.3593 11.6827 14.1998 11.4958 14.0039C11.1313 13.6439 10.8875 13.2475 10.7645 12.8146C10.646 12.3817 10.646 11.9488 10.7645 11.5159C10.8875 11.083 11.1267 10.6866 11.4822 10.3266L13.6489 8.16672C14.0043 7.80674 14.3985 7.56751 14.8314 7.44904C15.2643 7.33056 15.6971 7.33056 16.13 7.44904C16.5629 7.56751 16.9616 7.80674 17.3262 8.16672C17.6862 8.53126 17.9254 8.93225 18.0439 9.3697C18.1669 9.80259 18.1669 10.2355 18.0439 10.6684C17.9254 11.0967 17.6862 11.4909 17.3262 11.8508L16.2941 12.8898C16.3989 13.1358 16.4672 13.4047 16.4991 13.6963C16.5356 13.9879 16.5219 14.2682 16.4581 14.537L18.2899 12.7121C18.8276 12.1744 19.1853 11.5843 19.363 10.9418C19.5407 10.2947 19.5385 9.64766 19.3562 9.00061C19.1785 8.34899 18.8208 7.75434 18.2831 7.21665C17.7408 6.6744 17.1462 6.31441 16.4991 6.1367C15.8521 5.95443 15.205 5.95443 14.558 6.1367C13.9109 6.31441 13.3231 6.67212 12.7945 7.20981L10.5253 9.47223C9.99212 10.0054 9.6367 10.5955 9.45898 11.2425C9.28127 11.8896 9.27899 12.5366 9.45215 13.1837C9.62986 13.8307 9.98984 14.4254 10.5321 14.9676C10.7144 15.1454 10.9354 15.3026 11.1951 15.4393C11.4548 15.576 11.7647 15.6808 12.1247 15.7537Z" fill="#E8E8E8"/>
</svg>
