<svg width="26" height="26" viewBox="0 0 26 26" fill="none" xmlns="http://www.w3.org/2000/svg">
<circle cx="12.5078" cy="12.5469" r="12.5" fill="#D8292F"/>
<path d="M7.83398 15.1426C7.83398 15.9133 7.95366 16.6026 8.19301 17.2106C8.43714 17.8137 8.77702 18.326 9.21263 18.7472C9.65304 19.1733 10.1676 19.4964 10.7564 19.7166C11.35 19.9368 11.9963 20.0469 12.6952 20.0469C13.7196 20.0469 14.5788 19.841 15.2729 19.4294C15.9718 19.0177 16.5559 18.4002 17.025 17.5768C17.1973 17.3087 17.3577 17.0191 17.5061 16.708C17.6545 16.392 17.7909 16.0665 17.9154 15.7314C18.0398 15.3963 18.1547 15.0636 18.26 14.7333C18.3701 14.403 18.473 14.0871 18.5688 13.7855C18.6406 13.5653 18.7148 13.3331 18.7914 13.089C18.868 12.8401 18.935 12.6103 18.9924 12.3997C19.0547 12.189 19.0906 12.0239 19.1001 11.9042C19.1145 11.6888 19.0618 11.5117 18.9422 11.3729C18.8225 11.234 18.6573 11.1551 18.4467 11.1359C18.2122 11.1168 18.0111 11.1766 17.8436 11.3154C17.676 11.4495 17.5204 11.6673 17.3768 11.9688L16.4218 14.0296C16.3787 14.1302 16.3333 14.1996 16.2854 14.2379C16.2423 14.2762 16.1944 14.2953 16.1418 14.2953C16.0843 14.2953 16.0365 14.2762 15.9982 14.2379C15.9599 14.1948 15.9407 14.1182 15.9407 14.0081V6.80609C15.9407 6.5811 15.8617 6.39202 15.7038 6.23883C15.5506 6.08565 15.3615 6.00906 15.1365 6.00906C14.9115 6.00906 14.7224 6.08565 14.5693 6.23883C14.4161 6.39202 14.3395 6.5811 14.3395 6.80609V12.0766C14.2533 12.043 14.1624 12.0143 14.0666 11.9904C13.9757 11.9665 13.8799 11.9425 13.7794 11.9186V5.84391C13.7794 5.62371 13.7004 5.43701 13.5425 5.28383C13.3893 5.12586 13.2026 5.04688 12.9824 5.04688C12.7526 5.04688 12.5611 5.12586 12.4079 5.28383C12.2548 5.43701 12.1782 5.62371 12.1782 5.84391V11.8468C12.0776 11.8564 11.9795 11.8683 11.8838 11.8827C11.788 11.897 11.6923 11.9114 11.5965 11.9258V6.41116C11.5965 6.18618 11.5176 5.99709 11.3596 5.84391C11.2064 5.69072 11.0173 5.61413 10.7923 5.61413C10.5673 5.61413 10.3783 5.69072 10.2251 5.84391C10.0719 5.99709 9.99531 6.18618 9.99531 6.41116V12.3925C9.89478 12.4356 9.79665 12.4834 9.70091 12.5361C9.60995 12.5888 9.52139 12.6438 9.43523 12.7013V8.53658C9.43523 8.31159 9.35624 8.12251 9.19827 7.96933C9.04509 7.81136 8.856 7.73237 8.63102 7.73237C8.41082 7.73237 8.22173 7.81136 8.06376 7.96933C7.91058 8.12251 7.83398 8.31159 7.83398 8.53658V15.1426Z" fill="#E8E8E8"/>
</svg>
