<svg width="25" height="26" viewBox="0 0 25 26" fill="none" xmlns="http://www.w3.org/2000/svg">
<circle cx="12.5" cy="13" r="12.5" fill="#4D08A4"/>
<path fill-rule="evenodd" clip-rule="evenodd" d="M20 12.6764C20 16.6399 16.6421 19.8529 12.5 19.8529C11.8078 19.8529 11.1311 19.7637 10.4697 19.5853L10.304 19.5454C9.63857 19.4043 8.94335 19.4836 8.3249 19.774L8.00201 19.9222C6.80537 20.4579 6.0813 20.6211 5.82979 20.4118C5.60014 20.2207 5.6594 19.7318 6.00755 18.9451C6.38298 18.0968 6.36096 17.1256 5.94747 16.2951L5.82535 16.0422C5.27512 14.8659 5 13.7439 5 12.6764C5 8.713 8.35786 5.5 12.5 5.5C16.6421 5.5 20 8.713 20 12.6764ZM15.3088 12.1515C15.076 11.9264 14.7603 11.8 14.431 11.8H13.4757C13.2472 11.8 13.0619 11.6209 13.0619 11.4C13.0619 11.1791 13.2472 11 13.4757 11L14.431 11C14.9798 11 15.506 11.2107 15.894 11.5858C16.282 11.9609 16.5 12.4696 16.5 13C16.5 13.5304 16.282 14.0391 15.894 14.4142C15.506 14.7893 14.9798 15 14.431 15H13.4541C13.2256 15 13.0403 14.8209 13.0403 14.6C13.0403 14.3791 13.2256 14.2 13.4541 14.2L14.431 14.2C14.7603 14.2 15.076 14.0736 15.3088 13.8485C15.5416 13.6235 15.6724 13.3183 15.6724 13C15.6724 12.6817 15.5416 12.3765 15.3088 12.1515ZM11.5243 11C11.7528 11 11.9381 11.1791 11.9381 11.4C11.9381 11.6209 11.7528 11.8 11.5243 11.8H10.569C10.2397 11.8 9.92398 11.9264 9.69118 12.1515C9.45837 12.3765 9.32759 12.6817 9.32759 13C9.32759 13.3183 9.45837 13.6235 9.69118 13.8485C9.92398 14.0736 10.2397 14.2 10.569 14.2H11.5459C11.7744 14.2 11.9597 14.3791 11.9597 14.6C11.9597 14.8209 11.7744 15 11.5459 15H10.569C10.0202 15 9.49399 14.7893 9.10599 14.4142C8.71798 14.0391 8.5 13.5304 8.5 13C8.5 12.4696 8.71798 11.9609 9.10599 11.5858C9.49399 11.2107 10.0202 11 10.569 11H11.5243ZM13.9988 12.6C14.2273 12.6 14.4126 12.7791 14.4126 13C14.4126 13.2209 14.2273 13.4 13.9988 13.4H10.9667C10.7382 13.4 10.5529 13.2209 10.5529 13C10.5529 12.7791 10.7382 12.6 10.9667 12.6H13.9988Z" fill="#E8E8E8"/>
</svg>
