<svg width="25" height="26" viewBox="0 0 25 26" fill="none" xmlns="http://www.w3.org/2000/svg">
<circle cx="12.5" cy="13" r="12.5" fill="#0584FE"/>
<path d="M11.9747 19C12.2322 19 12.4445 18.9119 12.6116 18.7357C12.7833 18.5641 12.8691 18.3495 12.8691 18.092V15.8425H13.025C13.7929 15.8425 14.4637 15.926 15.0374 16.0932C15.6156 16.2603 16.1192 16.5291 16.5484 16.8995C16.9775 17.2699 17.3547 17.7555 17.68 18.3563C17.8109 18.5957 17.9555 18.7561 18.1136 18.8374C18.2717 18.9187 18.4411 18.9593 18.6218 18.9593C18.8612 18.9593 19.06 18.8442 19.2181 18.6138C19.3762 18.3879 19.4552 18.0536 19.4552 17.611C19.4552 16.4545 19.3242 15.4178 19.0622 14.5008C18.8047 13.5839 18.4095 12.8046 17.8764 12.1632C17.3479 11.5172 16.6794 11.0248 15.8708 10.6861C15.0667 10.3473 14.1181 10.1779 13.025 10.1779H12.8691V7.92829C12.8691 7.67532 12.7833 7.4585 12.6116 7.27781C12.44 7.0926 12.2231 7 11.9611 7C11.785 7 11.6246 7.0384 11.4801 7.11519C11.3355 7.19198 11.1684 7.32072 10.9787 7.50141L5.89 12.2309C5.76804 12.3484 5.67995 12.4749 5.62574 12.6104C5.57154 12.7414 5.54443 12.8701 5.54443 12.9966C5.54443 13.1186 5.57154 13.2496 5.62574 13.3896C5.67995 13.5251 5.77029 13.6494 5.89678 13.7623L10.9787 18.5325C11.1503 18.6951 11.3129 18.8125 11.4665 18.8848C11.6246 18.9616 11.794 19 11.9747 19Z" fill="#E8E8E8"/>
</svg>
