<svg width="26" height="26" viewBox="0 0 26 26" fill="none" xmlns="http://www.w3.org/2000/svg">
<circle cx="13" cy="13" r="12.5" fill="#363636"/>
<path fill-rule="evenodd" clip-rule="evenodd" d="M15.832 10.6146C15.7589 10.5852 15.6927 10.541 15.6375 10.4848C15.5318 10.3769 15.473 10.2316 15.4738 10.0805C15.4719 10.0019 15.4861 9.92366 15.5154 9.85065C15.5447 9.77764 15.5886 9.71135 15.6444 9.65584C15.697 9.59965 15.7611 9.55537 15.8323 9.52595C15.9035 9.49654 15.9801 9.48267 16.0571 9.48528H17.9674V7.58356C17.9651 7.50663 17.9791 7.43008 18.0085 7.35895C18.0379 7.28781 18.082 7.22369 18.1379 7.17081C18.1925 7.11474 18.2581 7.07062 18.3306 7.04126C18.4031 7.0119 18.481 6.99793 18.5592 7.00025C18.6362 6.99937 18.7126 7.01403 18.7838 7.04333C18.855 7.07264 18.9196 7.11599 18.9737 7.17081C19.0304 7.22307 19.075 7.28708 19.1045 7.35836C19.1339 7.42965 19.1475 7.5065 19.1442 7.58356V9.49722H21.0732C21.15 9.49561 21.2264 9.50948 21.2978 9.53799C21.3691 9.5665 21.4341 9.60907 21.4886 9.66317C21.5432 9.71727 21.5864 9.7818 21.6155 9.85291C21.6446 9.92403 21.6592 10.0003 21.6582 10.0771C21.6594 10.1543 21.645 10.2309 21.616 10.3024C21.587 10.3739 21.544 10.4388 21.4894 10.4933C21.4349 10.5479 21.3699 10.591 21.2984 10.6199C21.2269 10.6489 21.1504 10.6633 21.0732 10.6621H19.1561V12.5741C19.1563 12.6915 19.1217 12.8064 19.0567 12.9042C18.9918 13.002 18.8993 13.0784 18.791 13.1238C18.6827 13.1692 18.5634 13.1816 18.4481 13.1593C18.3328 13.1371 18.2266 13.0812 18.143 12.9988C18.0879 12.9428 18.0444 12.8764 18.0152 12.8035C17.9859 12.7306 17.9714 12.6527 17.9725 12.5741V10.6553H16.0622C15.9835 10.6578 15.9051 10.6439 15.832 10.6146ZM15.199 18.9975H6.50058C6.1972 19.0167 5.89618 18.9332 5.64608 18.7604C5.54698 18.6837 5.4677 18.5844 5.41488 18.4707C5.36206 18.3571 5.33724 18.2324 5.34249 18.1072C5.355 17.6374 5.48644 17.1785 5.72453 16.7734C6.00924 16.2735 6.38192 15.8292 6.82463 15.4618C7.33972 15.0326 7.92549 14.6961 8.55579 14.4675C10.0412 13.9559 11.655 13.9559 13.1404 14.4675C13.7726 14.6953 14.3602 15.0318 14.8767 15.4618C15.3194 15.8292 15.6921 16.2735 15.9768 16.7734C16.2153 17.1784 16.3474 17.6373 16.3605 18.1072C16.3653 18.2329 16.3398 18.3578 16.286 18.4715C16.2323 18.5853 16.152 18.6843 16.0518 18.7604C15.8015 18.9313 15.5017 19.0146 15.199 18.9975ZM12.1478 12.535C11.7612 12.787 11.3095 12.9204 10.8481 12.9188V12.9103C10.3904 12.9133 9.94175 12.7829 9.55697 12.535C9.15355 12.2755 8.82163 11.919 8.59161 11.4981C8.3444 11.051 8.21803 10.5472 8.22492 10.0364C8.2169 9.52975 8.34342 9.03006 8.59161 8.58833C8.82235 8.17428 9.15454 7.82568 9.55697 7.57522C9.94365 7.33216 10.3914 7.20382 10.8481 7.2051C11.3064 7.20313 11.7563 7.32829 12.1478 7.56668C12.55 7.81151 12.8824 8.15571 13.1131 8.56616C13.3621 9.00944 13.4887 9.51097 13.4798 10.0193C13.4869 10.5345 13.3606 11.0427 13.1131 11.4946C12.8836 11.9169 12.5517 12.2746 12.1478 12.535Z" fill="#E8E8E8"/>
</svg>
