<svg width="26" height="26" viewBox="0 0 26 26" fill="none" xmlns="http://www.w3.org/2000/svg">
<circle cx="13.125" cy="13" r="12.5" fill="#B07902"/>
<path d="M12.9554 19.5C13.3236 19.5 13.6491 19.4229 13.9317 19.2688C14.2186 19.1146 14.4477 18.9091 14.6189 18.6522C14.7945 18.3995 14.8973 18.1234 14.9272 17.8236H10.99C11.0157 18.1234 11.1163 18.3995 11.2919 18.6522C11.4674 18.9091 11.6986 19.1146 11.9855 19.2688C12.2724 19.4229 12.5957 19.5 12.9554 19.5ZM8.09325 16.9694H15.3512L8.99246 10.6042C8.93679 10.8483 8.89183 11.1052 8.85758 11.375C8.8276 11.6448 8.80833 11.9295 8.79977 12.2292C8.7698 12.5119 8.7334 12.7902 8.69058 13.0642C8.65204 13.334 8.5921 13.5823 8.51074 13.8093C8.43366 14.0319 8.32447 14.2139 8.18317 14.3552C7.90484 14.6122 7.64578 14.8819 7.406 15.1645C7.17049 15.4471 7.05273 15.7512 7.05273 16.0766C7.05273 16.3421 7.1448 16.5583 7.32892 16.7253C7.51733 16.888 7.7721 16.9694 8.09325 16.9694ZM12.9554 6.5C12.5101 6.5 12.1268 6.63488 11.8057 6.90464C11.4846 7.17441 11.2597 7.5084 11.1313 7.90662C10.9771 7.96229 10.8316 8.02652 10.6945 8.09931C10.5575 8.1721 10.4291 8.25774 10.3092 8.35623L18.6268 16.6803C18.7896 16.5305 18.8709 16.3292 18.8709 16.0766C18.8709 15.7512 18.751 15.4471 18.5112 15.1645C18.2714 14.8819 18.0145 14.6122 17.7405 14.3552C17.5906 14.2139 17.4771 14.0319 17.4001 13.8093C17.323 13.5823 17.263 13.334 17.2202 13.0642C17.1817 12.7902 17.1474 12.5119 17.1175 12.2292C17.0832 11.5013 16.9804 10.8462 16.8092 10.2638C16.6422 9.68149 16.3917 9.19121 16.0577 8.79298C15.728 8.39476 15.3062 8.09931 14.7924 7.90662C14.6596 7.5084 14.4327 7.17441 14.1115 6.90464C13.7904 6.63488 13.405 6.5 12.9554 6.5ZM7.27754 7.8167L18.3635 18.8898C18.4577 18.984 18.5733 19.0311 18.7103 19.0311C18.8474 19.0311 18.963 18.984 19.0572 18.8898C19.1514 18.7913 19.1985 18.6736 19.1985 18.5366C19.1985 18.4038 19.1514 18.2903 19.0572 18.1961L7.97764 7.1166C7.87915 7.0224 7.7614 6.9753 7.62437 6.9753C7.48735 6.9753 7.37174 7.0224 7.27754 7.1166C7.18333 7.2108 7.13623 7.32856 7.13623 7.46986C7.13623 7.60688 7.18333 7.7225 7.27754 7.8167Z" fill="#E8E8E8"/>
</svg>
