<svg width="25" height="26" viewBox="0 0 25 26" fill="none" xmlns="http://www.w3.org/2000/svg">
<circle cx="12.5" cy="13" r="12.5" fill="#363636"/>
<path d="M7.84473 15.6549C7.84473 15.923 7.92928 16.1416 8.09837 16.3106C8.27159 16.4756 8.50049 16.5581 8.78507 16.5581H11.8969V19.3358C11.8969 19.5379 11.9196 19.7359 11.9649 19.9297C12.0144 20.1236 12.0722 20.3009 12.1381 20.4618C12.2041 20.6267 12.2701 20.7567 12.3361 20.8515C12.4021 20.9505 12.4578 21 12.5031 21C12.5444 21 12.598 20.9505 12.664 20.8515C12.73 20.7567 12.796 20.6267 12.862 20.4618C12.9321 20.3009 12.9898 20.1236 13.0352 19.9297C13.0805 19.7359 13.1032 19.5379 13.1032 19.3358V16.5581H16.2212C16.5017 16.5581 16.7264 16.4756 16.8955 16.3106C17.0688 16.1416 17.1554 15.923 17.1554 15.6549C17.1554 15.2301 17.0481 14.8135 16.8337 14.4052C16.6233 13.9969 16.3181 13.6257 15.9181 13.2916C15.5221 12.9576 15.0478 12.6854 14.4952 12.475L14.3034 9.7468C14.7406 9.49521 15.1241 9.24363 15.4541 8.99205C15.784 8.73634 16.0233 8.51156 16.1717 8.31772C16.3326 8.1115 16.413 7.90323 16.413 7.69289C16.413 7.49492 16.3429 7.32995 16.2027 7.19797C16.0624 7.06599 15.881 7 15.6582 7H9.34185C9.11502 7 8.93148 7.06599 8.79126 7.19797C8.65516 7.32995 8.5871 7.49492 8.5871 7.69289C8.5871 7.90323 8.66753 8.1115 8.82838 8.31772C8.98098 8.51156 9.22019 8.73634 9.54601 8.99205C9.87183 9.24363 10.2575 9.49521 10.7029 9.7468L10.5111 12.475C9.95844 12.6854 9.48208 12.9576 9.08202 13.2916C8.68609 13.6257 8.38089 13.9969 8.16642 14.4052C7.95196 14.8135 7.84473 15.2301 7.84473 15.6549Z" fill="#E8E8E8"/>
</svg>
