<svg
  width="25"
  height="25"
  viewBox="0 0 25 25"
  fill="none"
  xmlns="http://www.w3.org/2000/svg"
>
  <circle cx="12.5" cy="12.5" r="12.5" fill="#0584FE" />
  <path
    d="M8.67923 15.5573H10.0556V14.4837H8.75894C8.53575 14.4837 8.36393 14.4246 8.24348 14.3065C8.12657 14.1884 8.06812 14.0094 8.06812 13.7696V8.7877C8.06812 8.54791 8.12657 8.36896 8.24348 8.25085C8.36393 8.13275 8.53575 8.07369 8.75894 8.07369H13.7116C13.9348 8.07369 14.1066 8.13275 14.2271 8.25085C14.3475 8.36896 14.4077 8.54791 14.4077 8.7877V9.88287H15.4705V8.68033C15.4705 8.13275 15.3271 7.7158 15.0401 7.42948C14.7567 7.14316 14.3404 7 13.7913 7H8.67923C8.12657 7 7.70853 7.14316 7.42512 7.42948C7.14171 7.71222 7 8.12917 7 8.68033V13.877C7 14.4246 7.14171 14.8415 7.42512 15.1279C7.70853 15.4142 8.12657 15.5573 8.67923 15.5573ZM11.214 18H16.3208C16.8699 18 17.2862 17.8568 17.5696 17.5705C17.8565 17.2842 18 16.8673 18 16.3197V11.123C18 10.5754 17.8565 10.1585 17.5696 9.87213C17.2862 9.58581 16.8699 9.44266 16.3208 9.44266H11.214C10.6614 9.44266 10.2415 9.58581 9.95459 9.87213C9.67118 10.1549 9.52947 10.5718 9.52947 11.123V16.3197C9.52947 16.8673 9.67118 17.2842 9.95459 17.5705C10.2415 17.8568 10.6614 18 11.214 18ZM11.2884 16.9263C11.0617 16.9263 10.8881 16.8655 10.7676 16.7438C10.6507 16.6257 10.5923 16.4485 10.5923 16.2123V11.2304C10.5923 10.9906 10.6507 10.8116 10.7676 10.6935C10.8881 10.5754 11.0617 10.5163 11.2884 10.5163H16.2411C16.4643 10.5163 16.6361 10.5754 16.7565 10.6935C16.877 10.8116 16.9372 10.9906 16.9372 11.2304V16.2123C16.9372 16.4485 16.877 16.6257 16.7565 16.7438C16.6361 16.8655 16.4643 16.9263 16.2411 16.9263H11.2884Z"
    fill="#E8E8E8"
  />
</svg>