<svg width="25" height="26" viewBox="0 0 25 26" fill="none" xmlns="http://www.w3.org/2000/svg">
<circle cx="12.5" cy="13" r="12.5" fill="#D8292F"/>
<path d="M9.34604 20.5H15.6607C16.1311 20.5 16.4956 20.3777 16.7543 20.1331C17.0177 19.8885 17.1612 19.5334 17.1847 19.0677L17.601 9.45814H18.5041C18.6781 9.45814 18.8263 9.39934 18.9486 9.28175C19.0709 9.16416 19.132 9.01364 19.132 8.8302C19.132 8.65616 19.0709 8.51035 18.9486 8.39276C18.8263 8.27516 18.6781 8.21637 18.5041 8.21637H6.49562C6.32158 8.21637 6.17341 8.27516 6.05112 8.39276C5.92882 8.51035 5.86768 8.65616 5.86768 8.8302C5.86768 9.01364 5.92882 9.16416 6.05112 9.28175C6.17341 9.39934 6.32158 9.45814 6.49562 9.45814H7.39872L7.82205 19.0677C7.84086 19.5334 7.98198 19.8885 8.24538 20.1331C8.50879 20.3777 8.87567 20.5 9.34604 20.5ZM10.3479 18.4116C10.2115 18.4116 10.0986 18.3716 10.0093 18.2916C9.92459 18.207 9.87991 18.0941 9.8752 17.953L9.67765 10.9186C9.67294 10.7822 9.71293 10.6717 9.79759 10.587C9.88696 10.5024 10.0022 10.46 10.1433 10.46C10.2844 10.46 10.3997 10.5024 10.489 10.587C10.5784 10.667 10.6254 10.7775 10.6301 10.9186L10.8277 17.9459C10.8324 18.087 10.7901 18.1999 10.7007 18.2846C10.6113 18.3692 10.4937 18.4116 10.3479 18.4116ZM12.4998 18.4116C12.3587 18.4116 12.2411 18.3692 12.1471 18.2846C12.0577 18.1999 12.013 18.0894 12.013 17.953V10.9116C12.013 10.7752 12.0577 10.667 12.1471 10.587C12.2411 10.5024 12.3587 10.46 12.4998 10.46C12.6457 10.46 12.7633 10.5024 12.8526 10.587C12.942 10.667 12.9867 10.7752 12.9867 10.9116V17.953C12.9867 18.0894 12.942 18.1999 12.8526 18.2846C12.7633 18.3692 12.6457 18.4116 12.4998 18.4116ZM14.6447 18.4116C14.4989 18.4116 14.3813 18.3692 14.2919 18.2846C14.2073 18.1999 14.1673 18.087 14.172 17.9459L14.3696 10.9186C14.3743 10.7775 14.4213 10.667 14.5107 10.587C14.6 10.5024 14.7153 10.46 14.8564 10.46C15.0022 10.46 15.1174 10.5024 15.2021 10.587C15.2868 10.6717 15.3268 10.7822 15.3221 10.9186L15.1245 17.953C15.1198 18.0941 15.0728 18.207 14.9834 18.2916C14.8987 18.3716 14.7858 18.4116 14.6447 18.4116ZM9.35309 8.46331H10.8065V7.28504C10.8065 7.13923 10.8512 7.02399 10.9406 6.93932C11.03 6.84995 11.157 6.80527 11.3216 6.80527H13.6711C13.831 6.80527 13.958 6.84995 14.0521 6.93932C14.1461 7.02399 14.1932 7.13923 14.1932 7.28504V8.46331H15.6325V7.2286C15.6325 6.68768 15.4679 6.26435 15.1386 5.95861C14.8094 5.65287 14.3507 5.5 13.7628 5.5H11.2228C10.6348 5.5 10.1762 5.65287 9.84698 5.95861C9.51772 6.26435 9.35309 6.68768 9.35309 7.2286V8.46331Z" fill="#E8E8E8"/>
</svg>
