<svg width="25" height="26" viewBox="0 0 25 26" fill="none" xmlns="http://www.w3.org/2000/svg">
<circle cx="12.5" cy="13" r="12.5" fill="#363636"/>
<path fill-rule="evenodd" clip-rule="evenodd" d="M6.03835 6H18.9614C19.5562 6 20.0383 6.48216 20.0383 7.07692V7.61538C20.0383 8.21015 19.5562 8.69231 18.9614 8.69231H6.03835C5.44358 8.69231 4.96143 8.21015 4.96143 7.61538V7.07692C4.96143 6.48216 5.44358 6 6.03835 6ZM6.03835 18.1154V9.90385C6.03835 9.86814 6.05253 9.8339 6.07778 9.80866C6.10302 9.78341 6.13726 9.76923 6.17296 9.76923H18.8268C18.8625 9.76923 18.8968 9.78341 18.922 9.80866C18.9472 9.8339 18.9614 9.86814 18.9614 9.90385V18.1154C18.9614 18.6152 18.7629 19.0946 18.4094 19.448C18.056 19.8014 17.5766 20 17.0768 20H7.92296C7.42313 20 6.94377 19.8014 6.59034 19.448C6.23691 19.0946 6.03835 18.6152 6.03835 18.1154ZM12.8805 17.1499L15.0239 15.0068C15.2289 14.8018 15.2477 14.468 15.0525 14.2536C15.0035 14.1996 14.9441 14.1562 14.8778 14.1258C14.8115 14.0955 14.7397 14.079 14.6669 14.0772C14.594 14.0755 14.5215 14.0885 14.4538 14.1156C14.3861 14.1427 14.3247 14.1832 14.2731 14.2348L13.0384 15.4692V11.9231C13.0383 11.8502 13.0235 11.7781 12.9948 11.7111C12.9661 11.6441 12.9241 11.5836 12.8713 11.5333C12.8186 11.483 12.7561 11.444 12.6878 11.4185C12.6195 11.3931 12.5468 11.3818 12.474 11.3853C12.1842 11.3998 11.9614 11.6485 11.9614 11.9382V15.4692L10.7267 14.2348C10.6751 14.1832 10.6136 14.1427 10.546 14.1156C10.4783 14.0885 10.4058 14.0755 10.3329 14.0772C10.26 14.079 10.1883 14.0955 10.122 14.1258C10.0557 14.1562 9.99624 14.1996 9.94724 14.2536C9.75205 14.4683 9.7709 14.8018 9.97585 15.0068L12.1193 17.1499C12.2202 17.2508 12.3571 17.3074 12.4999 17.3074C12.6426 17.3074 12.7795 17.2508 12.8805 17.1499Z" fill="#E8E8E8"/>
</svg>
