<svg width="25" height="26" viewBox="0 0 25 26" fill="none" xmlns="http://www.w3.org/2000/svg">
<circle cx="12.5" cy="13.0645" r="12.5" fill="#00962D"/>
<path fill-rule="evenodd" clip-rule="evenodd" d="M13.6813 11.9444V9.84445C13.6813 7.74445 15.3613 6.06445 17.4613 6.06445C19.5613 6.06445 21.2413 7.74445 21.2413 9.84445V11.9444H19.8413V9.84445C19.8413 8.58445 18.7213 7.46445 17.4613 7.46445C16.2013 7.46445 15.0813 8.58445 15.0813 9.84445V11.9444H13.6813ZM7.01976 11.9445H16.2598C16.9598 11.9445 17.5198 12.3645 17.3798 13.0645V18.9445C17.3798 19.5045 16.9598 20.0645 16.2598 20.0645H6.87976C6.31976 20.0645 5.75977 19.6445 5.75977 18.9445V13.0645C5.75977 12.3645 6.31976 11.9445 7.01976 11.9445ZM12.0598 17.9645C12.3398 17.9645 12.4798 17.8245 12.4798 17.5445C12.4331 17.2645 12.402 17.0156 12.3761 16.8082C12.3242 16.3933 12.2931 16.1445 12.1998 16.1445C12.4798 15.8645 12.7598 15.5845 12.7598 15.1645C12.7598 14.4645 12.1998 14.0445 11.6398 14.0445C11.0798 14.0445 10.5198 14.4645 10.5198 15.1645C10.5198 15.4445 10.6598 15.8645 10.9398 16.1445L10.7998 17.5445C10.7998 17.8245 10.9398 17.9645 11.2198 17.9645H12.0598Z" fill="#E8E8E8"/>
</svg>
