<svg width="26" height="26" viewBox="0 0 26 26" fill="none" xmlns="http://www.w3.org/2000/svg">
<path d="M12.5757 19.9609C12.8547 19.9609 13.0847 19.8655 13.2657 19.6747C13.4517 19.4887 13.5447 19.2563 13.5447 18.9773V16.5403H13.7135C14.5454 16.5403 15.2721 16.6308 15.8936 16.8119C16.52 16.9929 17.0657 17.2841 17.5306 17.6854C17.9955 18.0867 18.4041 18.6127 18.7564 19.2636C18.8983 19.523 19.0549 19.6967 19.2262 19.7848C19.3975 19.8729 19.581 19.9169 19.7768 19.9169C20.0361 19.9169 20.2514 19.7921 20.4227 19.5425C20.594 19.2978 20.6796 18.9357 20.6796 18.4561C20.6796 17.2034 20.5377 16.0803 20.2539 15.0869C19.9749 14.0934 19.5468 13.2493 18.9693 12.5544C18.3967 11.8546 17.6725 11.3212 16.7965 10.9542C15.9254 10.5871 14.8978 10.4036 13.7135 10.4036H13.5447V7.96658C13.5447 7.69254 13.4517 7.45764 13.2657 7.2619C13.0798 7.06126 12.8449 6.96094 12.5611 6.96094C12.3702 6.96094 12.1965 7.00253 12.0399 7.08573C11.8833 7.16892 11.7022 7.30839 11.4967 7.50413L5.98398 12.6278C5.85186 12.755 5.75643 12.892 5.6977 13.0389C5.63898 13.1808 5.60962 13.3202 5.60962 13.4573C5.60962 13.5894 5.63898 13.7313 5.6977 13.883C5.75643 14.0298 5.8543 14.1644 5.99132 14.2867L11.4967 19.4544C11.6826 19.6306 11.8588 19.7579 12.0252 19.8361C12.1965 19.9193 12.38 19.9609 12.5757 19.9609Z" fill="#727272"/>
</svg>
