<svg width="16" height="16" viewBox="0 0 16 16" fill="none" xmlns="http://www.w3.org/2000/svg">
<path d="M9.35254 2.46094C9.40428 2.46085 9.45554 2.47095 9.50337 2.49068C9.5512 2.51041 9.59468 2.53937 9.63131 2.57591L13.5293 6.47392C13.6031 6.54775 13.6446 6.64788 13.6446 6.75229C13.6446 6.85669 13.6031 6.95683 13.5293 7.03066C13.1513 7.40865 12.6851 7.4937 12.3457 7.4937C12.2064 7.4937 12.0819 7.47952 11.9835 7.46299L9.51555 9.93094C9.58052 10.1927 9.62267 10.4596 9.64155 10.7286C9.67777 11.2815 9.61635 12.0571 9.07456 12.5989C9.00073 12.6727 8.9006 12.7142 8.79619 12.7142C8.69179 12.7142 8.59165 12.6727 8.51782 12.5989L6.29005 10.3719L3.7843 12.8777C3.63074 13.0312 2.82437 13.588 2.67081 13.4344C2.51725 13.2809 3.074 12.4737 3.22755 12.3209L5.7333 9.81518L3.50632 7.58741C3.43251 7.51357 3.39104 7.41344 3.39104 7.30903C3.39104 7.20463 3.43251 7.1045 3.50632 7.03066C4.0481 6.48888 4.82377 6.42667 5.37658 6.46368C5.64562 6.48253 5.91253 6.52469 6.17429 6.58968L8.64224 4.12251C8.62164 4.00259 8.6111 3.88116 8.61074 3.75949C8.61074 3.42087 8.69579 2.95469 9.07456 2.57591C9.14836 2.50231 9.24832 2.46096 9.35254 2.46094Z" fill="#727272"/>
</svg>
