<svg width="26" height="26" viewBox="0 0 26 26" fill="none" xmlns="http://www.w3.org/2000/svg">
<path d="M4.33057 13.499C4.33057 19.0537 8.11826 22.4609 13.394 22.4609C14.7805 22.4609 16.0234 22.2834 16.7928 22.0297C17.3508 21.8437 17.5452 21.5478 17.5452 21.2012C17.5452 20.8376 17.2831 20.5755 16.8942 20.5755C16.7758 20.5755 16.6321 20.5925 16.463 20.6263C15.5499 20.8376 14.7552 20.9898 13.673 20.9898C9.05673 20.9898 5.95386 18.2167 5.95386 13.5497C5.95386 9.05183 8.90454 5.9236 13.3094 5.9236C17.2578 5.9236 20.4367 8.37545 20.4367 12.6789C20.4367 15.0885 19.6251 16.7118 18.3315 16.7118C17.4691 16.7118 16.9788 16.1876 16.9788 15.2914V9.86347C16.9788 9.33083 16.6828 9.00955 16.1756 9.00955C15.6683 9.00955 15.3639 9.33083 15.3639 9.86347V10.6751H15.254C14.8313 9.64365 13.7998 9.00955 12.557 9.00955C10.3841 9.00955 8.86227 10.8527 8.86227 13.5243C8.86227 16.2298 10.3926 18.1068 12.6246 18.1068C13.9182 18.1068 14.8905 17.422 15.3724 16.2468H15.4738C15.6767 17.405 16.6744 18.1068 18.0271 18.1068C20.4621 18.1068 21.9586 15.8325 21.9586 12.569C21.9586 7.66526 18.3569 4.46094 13.3263 4.46094C8.03371 4.46094 4.33057 8.07108 4.33057 13.499ZM12.9543 16.5849C11.5509 16.5849 10.6716 15.4097 10.6716 13.5413C10.6716 11.6812 11.5593 10.506 12.9628 10.506C14.3916 10.506 15.2963 11.6643 15.2963 13.5074C15.2963 15.3844 14.3832 16.5849 12.9543 16.5849Z" fill="#727272"/>
</svg>
