<svg width="26" height="26" viewBox="0 0 26 26" fill="none" xmlns="http://www.w3.org/2000/svg">
<path d="M25.5625 13.1094C25.5625 20.0125 19.9657 25.6094 13.0625 25.6094C6.15933 25.6094 0.5625 20.0125 0.5625 13.1094C0.5625 6.20621 6.15933 0.609375 13.0625 0.609375C19.9671 0.609375 25.5625 6.20621 25.5625 13.1094Z" fill="white"/>
<path d="M6.72905 13.5294L6.78296 13.4447L10.0347 8.35772C10.0822 8.28322 10.194 8.29094 10.2299 8.37183C10.7732 9.58933 11.2419 11.1035 11.0223 12.0461C10.9286 12.4339 10.6717 12.9592 10.3827 13.4447C10.3455 13.5153 10.3044 13.5847 10.2607 13.6514C10.2402 13.6822 10.2055 13.7002 10.1683 13.7002H6.82407C6.73416 13.7002 6.68152 13.6026 6.72905 13.5294Z" fill="#2081E2"/>
<path d="M21.2239 14.4746V15.2798C21.2239 15.3261 21.1956 15.3672 21.1545 15.3852C20.9028 15.493 20.041 15.8886 19.6827 16.3869C18.7684 17.6596 18.0697 19.4794 16.508 19.4794H9.99299C7.68391 19.4794 5.81274 17.6018 5.81274 15.285V15.2105C5.81274 15.1488 5.86283 15.0988 5.92447 15.0988H9.55636C9.62827 15.0988 9.68094 15.1655 9.67452 15.2362C9.64883 15.4725 9.69249 15.7139 9.80422 15.9335C10.02 16.3715 10.4669 16.645 10.9498 16.645H12.7477V15.2413H10.9703C10.8791 15.2413 10.8252 15.136 10.8779 15.0615C10.8971 15.032 10.919 15.0012 10.9421 14.9665C11.1103 14.7276 11.3505 14.3565 11.5893 13.9339C11.7524 13.6488 11.9104 13.3445 12.0375 13.0388C12.0632 12.9836 12.0838 12.9271 12.1043 12.8718C12.139 12.7743 12.175 12.6831 12.2006 12.5919C12.2263 12.5148 12.2469 12.4339 12.2674 12.3582C12.3278 12.0987 12.3535 11.8239 12.3535 11.5388C12.3535 11.4271 12.3483 11.3102 12.3381 11.1985C12.3329 11.0765 12.3175 10.9545 12.3021 10.8325C12.2918 10.7246 12.2726 10.618 12.252 10.5063C12.2263 10.3432 12.1904 10.1813 12.1493 10.0182L12.1352 9.9566C12.1043 9.84488 12.0786 9.73826 12.0427 9.62654C11.9412 9.27593 11.8244 8.93432 11.7011 8.61454C11.6561 8.4874 11.6047 8.3654 11.5534 8.2434C11.4776 8.05974 11.4005 7.89279 11.3299 7.73482C11.294 7.6629 11.2631 7.5974 11.2323 7.53063C11.1976 7.45485 11.1617 7.3791 11.1257 7.30715C11.1 7.25193 11.0705 7.20057 11.0499 7.14921L10.8304 6.74337C10.7995 6.68815 10.8509 6.62265 10.9112 6.63935L12.2854 7.01179H12.2893C12.2918 7.01179 12.2944 7.01307 12.2944 7.01307L12.4755 7.06315L12.6746 7.11965L12.7477 7.14021V6.32343C12.7477 5.92915 13.0637 5.60938 13.4541 5.60938C13.6493 5.60938 13.8265 5.68899 13.9537 5.81871C14.0808 5.94843 14.1604 6.12565 14.1604 6.32343V7.53576L14.3068 7.57685C14.3184 7.58071 14.3299 7.58585 14.3402 7.59354C14.3762 7.62051 14.4275 7.66035 14.493 7.70913C14.5444 7.75024 14.5996 7.80032 14.6664 7.85168C14.7987 7.95829 14.9567 8.09571 15.13 8.25365C15.1763 8.29349 15.2212 8.33457 15.2623 8.37568C15.4858 8.58371 15.7362 8.82774 15.9751 9.09743C16.0419 9.17318 16.1074 9.25024 16.1741 9.33115C16.2409 9.41335 16.3115 9.49426 16.3732 9.57518C16.4541 9.68304 16.5414 9.79476 16.6172 9.91165C16.6532 9.96688 16.6943 10.0234 16.7289 10.0786C16.8265 10.2263 16.9126 10.3791 16.9948 10.5319C17.0295 10.6026 17.0654 10.6796 17.0962 10.7554C17.1874 10.9596 17.2594 11.1677 17.3056 11.3757C17.3197 11.4207 17.33 11.4695 17.3351 11.5131V11.5234C17.3505 11.585 17.3557 11.6505 17.3608 11.7173C17.3814 11.9305 17.3711 12.1437 17.3248 12.3582C17.3056 12.4493 17.2799 12.5354 17.2491 12.6266C17.2182 12.7139 17.1874 12.8051 17.1476 12.8911C17.0706 13.0696 16.9794 13.2482 16.8715 13.4151C16.8368 13.4767 16.7957 13.5422 16.7546 13.6039C16.7097 13.6694 16.6634 13.731 16.6224 13.7914C16.5659 13.8685 16.5055 13.9493 16.4438 14.0213C16.3886 14.097 16.3321 14.1728 16.2705 14.2396C16.1844 14.341 16.1022 14.4374 16.0162 14.5298C15.9648 14.5902 15.9096 14.6518 15.8531 14.7071C15.7979 14.7687 15.7414 14.8239 15.69 14.8753C15.6039 14.9613 15.532 15.0281 15.4717 15.0833L15.3304 15.2131C15.3098 15.231 15.2829 15.2413 15.2546 15.2413H14.1604V16.645H15.5372C15.8454 16.645 16.1382 16.5358 16.3745 16.3355C16.4554 16.2649 16.8086 15.9592 17.226 15.4982C17.2401 15.4828 17.258 15.4712 17.2786 15.4661L21.0813 14.3667C21.1519 14.3462 21.2239 14.4001 21.2239 14.4746Z" fill="#2081E2"/>
</svg>
