<svg width="20" height="20" viewBox="0 0 20 20" fill="none" xmlns="http://www.w3.org/2000/svg">
<path fill-rule="evenodd" clip-rule="evenodd" d="M17.5 9.67644C17.5 13.6399 14.1421 16.8529 10 16.8529C9.30783 16.8529 8.63107 16.7637 7.96973 16.5853L7.80404 16.5454C7.13857 16.4043 6.44335 16.4836 5.8249 16.774L5.50201 16.9222C4.30537 17.4579 3.5813 17.6211 3.32979 17.4118C3.10014 17.2207 3.1594 16.7318 3.50755 15.9451C3.88298 15.0968 3.86096 14.1256 3.44747 13.2951L3.32535 13.0422C2.77512 11.8659 2.5 10.7439 2.5 9.67644C2.5 5.713 5.85786 2.5 10 2.5C14.1421 2.5 17.5 5.713 17.5 9.67644ZM16.2497 9.73029C16.2497 13.0332 13.4515 15.7107 9.99969 15.7107C9.42288 15.7107 8.85892 15.6363 8.3078 15.4877L8.16973 15.4544C7.61517 15.3368 7.03582 15.4029 6.52044 15.6449L6.25137 15.7684C5.25417 16.2148 4.65078 16.3508 4.44119 16.1764C4.24981 16.0172 4.29919 15.6098 4.58932 14.9542C4.90218 14.2472 4.88383 13.4379 4.53925 12.7458L4.43749 12.5351C3.97896 11.5548 3.74969 10.6199 3.74969 9.73029C3.74969 6.42742 6.54791 3.74992 9.99969 3.74992C13.4515 3.74992 16.2497 6.42742 16.2497 9.73029Z" fill="#727272"/>
</svg>
