<svg width="30" height="30" viewBox="0 0 30 30" fill="none" xmlns="http://www.w3.org/2000/svg">
<path d="M9.01562 17.1277C9.01562 17.4724 9.12433 17.7534 9.34174 17.9708C9.56445 18.1829 9.85875 18.289 10.2246 18.289H14.2255V21.8604C14.2255 22.1202 14.2547 22.3747 14.313 22.624C14.3767 22.8732 14.4509 23.1012 14.5357 23.308C14.6206 23.5201 14.7054 23.6871 14.7903 23.8091C14.8751 23.9364 14.9467 24 15.005 24C15.058 24 15.127 23.9364 15.2118 23.8091C15.2967 23.6871 15.3815 23.5201 15.4664 23.308C15.5565 23.1012 15.6307 22.8732 15.6891 22.624C15.7474 22.3747 15.7766 22.1202 15.7766 21.8604V18.289H19.7854C20.146 18.289 20.435 18.1829 20.6524 17.9708C20.8751 17.7534 20.9865 17.4724 20.9865 17.1277C20.9865 16.5815 20.8486 16.046 20.5729 15.521C20.3024 14.996 19.91 14.5188 19.3957 14.0893C18.8866 13.6597 18.2768 13.3098 17.5662 13.0393L17.3196 9.5316C17.8817 9.20813 18.3749 8.88467 18.7991 8.5612C19.2233 8.23243 19.5309 7.94344 19.7218 7.69421C19.9286 7.42908 20.032 7.16129 20.032 6.89085C20.032 6.63632 19.9418 6.42422 19.7615 6.25453C19.5812 6.08484 19.3479 6 19.0616 6H10.9405C10.6489 6 10.4129 6.08484 10.2326 6.25453C10.0576 6.42422 9.97011 6.63632 9.97011 6.89085C9.97011 7.16129 10.0735 7.42908 10.2803 7.69421C10.4765 7.94344 10.7841 8.23243 11.203 8.5612C11.6219 8.88467 12.1177 9.20813 12.6904 9.5316L12.4438 13.0393C11.7333 13.3098 11.1208 13.6597 10.6064 14.0893C10.0974 14.5188 9.70498 14.996 9.42924 15.521C9.1535 16.046 9.01562 16.5815 9.01562 17.1277Z" fill="#727272"/>
</svg>
