<svg width="20" height="20" viewBox="0 0 20 20" fill="none" xmlns="http://www.w3.org/2000/svg">
<path fill-rule="evenodd" clip-rule="evenodd" d="M16.3636 0C18.3719 0 20 1.62806 20 3.63636V16.3636C20 18.3719 18.3719 20 16.3636 20H3.63636C1.62806 20 0 18.3719 0 16.3636V3.63636C0 1.62806 1.62806 0 3.63636 0H16.3636ZM16.3636 1.81818H3.63636C2.63221 1.81818 1.81818 2.63221 1.81818 3.63636V13.1504C1.81818 13.2508 1.89958 13.3322 2 13.3322C2.02838 13.3322 2.05637 13.3256 2.08173 13.3128L7.54873 10.5618C9.09082 9.78552 10.9094 9.78514 12.4518 10.5608L17.9183 13.3093C18.008 13.3544 18.1173 13.3183 18.1624 13.2286C18.1752 13.2032 18.1818 13.1753 18.1818 13.1469V3.63636C18.1818 2.63221 17.3678 1.81818 16.3636 1.81818ZM5.90909 3.63636C7.16428 3.63636 8.18182 4.6539 8.18182 5.90909C8.18182 7.16428 7.16428 8.18182 5.90909 8.18182C4.6539 8.18182 3.63636 7.16428 3.63636 5.90909C3.63636 4.6539 4.6539 3.63636 5.90909 3.63636Z" fill="#E8E8E8"/>
</svg>
