<svg width="13" height="14" viewBox="0 0 13 14" fill="none" xmlns="http://www.w3.org/2000/svg">
<path d="M2.70829 3.79167V5.83333H1.83329C1.18871 5.83333 0.666626 6.35542 0.666626 7V12.8333C0.666626 13.4779 1.18871 14 1.83329 14H11.1666C11.8112 14 12.3333 13.4779 12.3333 12.8333V7C12.3333 6.35542 11.8112 5.83333 11.1666 5.83333H10.2916V3.79167C10.2916 1.6975 8.59413 0 6.49996 0C4.40579 0 2.70829 1.6975 2.70829 3.79167ZM4.16663 5.83333V3.79167C4.16663 2.50308 5.21138 1.45833 6.49996 1.45833C7.78854 1.45833 8.83329 2.50308 8.83329 3.79167V5.83333H4.16663ZM5.33329 9.04167C5.33329 8.39708 5.85538 7.875 6.49996 7.875C7.14454 7.875 7.66663 8.39708 7.66663 9.04167C7.66663 9.45058 7.45604 9.81108 7.13696 10.0193L7.13229 10.0222C7.13229 10.0222 7.24604 10.7106 7.37438 11.5214V11.522C7.37438 11.7635 7.17896 11.9589 6.93746 11.9589C6.93688 11.9589 6.93688 11.9589 6.93629 11.9589H6.06188H6.06129C5.81979 11.9589 5.62438 11.7635 5.62438 11.522V11.5214L5.86646 10.0222C5.54329 9.81167 5.33213 9.45117 5.33213 9.04225L5.33329 9.04167Z" fill="#727272"/>
</svg>
