<svg width="20" height="20" viewBox="0 0 20 20" fill="none" xmlns="http://www.w3.org/2000/svg">
<path d="M6.24657 17C6.73992 17 7.03442 16.7558 7.13007 16.2675L9.59177 3.99676C9.60184 3.95649 9.60939 3.91118 9.61443 3.86084C9.6245 3.8105 9.62953 3.75512 9.62953 3.69471C9.62953 3.48328 9.55905 3.31464 9.4181 3.18878C9.27714 3.06293 9.09339 3 8.86685 3C8.61011 3 8.41126 3.06544 8.27031 3.19633C8.12935 3.32722 8.0337 3.51348 7.98336 3.75512L5.52921 16.0183C5.50907 16.109 5.499 16.2071 5.499 16.3128C5.499 16.5243 5.56696 16.6904 5.70288 16.8112C5.83881 16.9371 6.02004 17 6.24657 17ZM10.8981 17C11.3965 17 11.6935 16.7558 11.7892 16.2675L14.2584 3.99676C14.2584 3.95649 14.2635 3.91118 14.2735 3.86084C14.2836 3.8105 14.2886 3.75512 14.2886 3.69471C14.2886 3.48328 14.2182 3.31464 14.0772 3.18878C13.9363 3.06293 13.7525 3 13.526 3C13.2692 3 13.0704 3.06544 12.9294 3.19633C12.7935 3.32722 12.7004 3.51348 12.65 3.75512L10.1883 16.0183C10.1682 16.109 10.1581 16.2071 10.1581 16.3128C10.1581 16.5243 10.2261 16.6904 10.362 16.8112C10.4979 16.9371 10.6766 17 10.8981 17ZM5.22716 8.21791H15.5422C15.819 8.21791 16.038 8.13484 16.1991 7.96872C16.3652 7.80259 16.4483 7.58864 16.4483 7.32686C16.4483 7.12046 16.3803 6.9493 16.2444 6.81338C16.1135 6.67745 15.9373 6.60949 15.7158 6.60949H5.39328C5.12144 6.60949 4.90245 6.69256 4.73633 6.85868C4.57523 7.02481 4.49469 7.23876 4.49469 7.50054C4.49469 7.71701 4.56013 7.89069 4.69102 8.02157C4.82191 8.15246 5.00062 8.21791 5.22716 8.21791ZM4.28325 13.0885H14.5982C14.8751 13.0885 15.0941 13.0079 15.2552 12.8468C15.4213 12.6857 15.5044 12.4743 15.5044 12.2125C15.5044 12.0011 15.4364 11.8274 15.3005 11.6915C15.1696 11.5556 14.9934 11.4876 14.7719 11.4876H4.44938C4.17753 11.4876 3.95855 11.5707 3.79242 11.7368C3.63133 11.9029 3.55078 12.1169 3.55078 12.3786C3.55078 12.5951 3.61623 12.7688 3.74711 12.8997C3.88304 13.0255 4.06175 13.0885 4.28325 13.0885Z" fill="#727272"/>
</svg>
