<svg width="20" height="20" viewBox="0 0 20 20" fill="none" xmlns="http://www.w3.org/2000/svg">
<path d="M4.83172 15.5H15.1685C16.4232 15.5 17.0446 14.8846 17.0446 13.6537V6.35225C17.0446 5.1214 16.4232 4.5 15.1685 4.5H4.83172C3.58294 4.5 2.95557 5.1214 2.95557 6.35225V13.6537C2.95557 14.8846 3.58294 15.5 4.83172 15.5ZM7.43683 10.1524C6.62422 10.1524 5.961 9.48914 5.961 8.67653C5.961 7.86991 6.62422 7.20071 7.43683 7.20071C8.24345 7.20071 8.90668 7.86991 8.90668 8.67653C8.90668 9.48914 8.24345 10.1524 7.43683 10.1524ZM4.84367 14.544C4.26409 14.544 3.91754 14.1974 3.91754 13.6119V13.2474L5.75187 11.6461C6.01477 11.4131 6.30157 11.2936 6.56447 11.2936C6.85725 11.2936 7.16198 11.4131 7.42488 11.6581L8.5661 12.6858L11.4222 10.1524C11.7149 9.88946 12.0436 9.76996 12.3841 9.76996C12.7128 9.76996 13.0533 9.89544 13.3342 10.1583L16.0827 12.7037V13.6238C16.0827 14.1974 15.7301 14.544 15.1625 14.544H4.84367Z" fill="#727272"/>
</svg>
