<svg width="20" height="20" viewBox="0 0 20 20" fill="none" xmlns="http://www.w3.org/2000/svg">
<path d="M16.5235 3C16.9652 3 17.3891 3.33668 17.3891 3.84528V8.40619C17.3891 8.73723 17.1157 9.00545 16.7786 9.00545H12.1383C11.6198 9.00545 11.2765 8.58906 11.2765 8.15516C11.2765 7.94778 11.3549 7.73627 11.53 7.56434L12.967 6.15324C12.0683 5.42988 10.9335 5.00786 9.74082 5.00786C6.93533 5.00786 4.65151 7.24892 4.65151 10.0033C4.65151 12.7576 6.93405 14.9975 9.73986 14.9975C12.0692 14.9975 12.5883 13.7999 13.4056 13.7999C13.9941 13.7999 14.4237 14.27 14.4237 14.799C14.4237 15.8943 11.8253 17 9.74209 17C5.81205 17 2.61133 13.8583 2.61133 10.0008C2.61133 6.14324 5.813 3.01032 9.74305 3.01032C11.4819 3.01032 13.1253 3.64772 14.4056 4.73777L15.9216 3.24883C16.0967 3.0769 16.3133 3 16.5235 3Z" fill="#727272"/>
</svg>
