<svg width="30" height="30" viewBox="0 0 30 30" fill="none" xmlns="http://www.w3.org/2000/svg">
<path d="M15 23.5283C15.3031 23.5283 15.562 23.4146 15.7767 23.1873L21.659 17.3145C21.7727 17.1945 21.8579 17.0682 21.9147 16.9356C21.9716 16.8093 22 16.6798 22 16.5472C22 16.2441 21.9021 15.9947 21.7064 15.7989C21.5169 15.6032 21.277 15.5053 20.9865 15.5053C20.8349 15.5053 20.6928 15.5337 20.5602 15.5905C20.4339 15.6474 20.3234 15.7231 20.2287 15.8179L18.2016 17.826L15.2273 21.075L15.8714 21.4539L16.0514 18.2522L16.0514 7.54859C16.0514 7.22653 15.9535 6.96446 15.7578 6.76239C15.562 6.56663 15.3094 6.46875 15 6.46875C14.6843 6.46875 14.4285 6.56663 14.2327 6.76239C14.037 6.96446 13.9391 7.22653 13.9391 7.54859L13.9391 18.2522L14.1286 21.4539L14.7537 21.075L11.7889 17.826L9.76184 15.8179C9.66712 15.7231 9.55345 15.6474 9.42084 15.5905C9.29454 15.5337 9.15561 15.5053 9.00406 15.5053C8.71358 15.5053 8.47361 15.6032 8.28417 15.7989C8.09472 15.9947 8 16.2441 8 16.5472C8 16.8251 8.10735 17.0745 8.32206 17.2955L14.2138 23.1873C14.4285 23.4146 14.6906 23.5283 15 23.5283Z" fill="#E8E8E8"/>
</svg>
