<svg width="16" height="17" viewBox="0 0 16 17" fill="none" xmlns="http://www.w3.org/2000/svg">
<path fill-rule="evenodd" clip-rule="evenodd" d="M8.25704 16.0047C8.15588 16.0328 8.07158 16.0469 8.00414 16.0469C7.92546 16.0469 7.83554 16.0328 7.73438 16.0047C7.63884 15.9766 7.54049 15.9373 7.43933 15.8867C6.30972 15.2685 5.35433 14.7178 4.57316 14.2344C3.79199 13.7511 3.16255 13.2762 2.68485 12.8098C2.21278 12.3433 1.86715 11.8432 1.64797 11.3093C1.43442 10.7697 1.32764 10.1403 1.32764 9.42095V3.52843C1.32764 3.0395 1.42318 2.67982 1.61425 2.4494C1.80533 2.21337 2.10881 2.00824 2.52469 1.83402C2.73262 1.74972 3.04734 1.6317 3.46884 1.47996C3.89033 1.3226 4.34274 1.15682 4.82606 0.982597C5.30937 0.808378 5.75897 0.65102 6.17484 0.510521C6.59072 0.364402 6.90263 0.257623 7.11057 0.190184C7.24544 0.150844 7.38875 0.117124 7.54049 0.0890246C7.69785 0.0609249 7.8524 0.046875 8.00414 0.046875C8.14464 0.046875 8.29076 0.0609249 8.44249 0.0890246C8.59985 0.111504 8.74878 0.145224 8.88928 0.190184C9.09722 0.257623 9.40913 0.364402 9.825 0.510521C10.2409 0.65102 10.6877 0.808378 11.1654 0.982597C11.6487 1.15682 12.1011 1.3226 12.5226 1.47996C12.9441 1.6317 13.2616 1.74972 13.4752 1.83402C13.8854 2.00824 14.1861 2.21337 14.3772 2.4494C14.5739 2.67982 14.6722 3.0395 14.6722 3.52843V9.42095C14.6722 10.1403 14.5654 10.7726 14.3519 11.3177C14.1383 11.8628 13.7955 12.3742 13.3234 12.8519C12.857 13.324 12.2332 13.8017 11.452 14.285C10.6708 14.7683 9.70698 15.3022 8.56051 15.8867C8.45935 15.9373 8.35819 15.9766 8.25704 16.0047ZM5.57186 11.3824C5.479 11.3995 5.3957 11.3781 5.32196 11.318C5.24822 11.2609 5.20316 11.1837 5.18677 11.0865C5.17312 10.9922 5.18677 10.8764 5.22774 10.7392L6.04708 8.18396L3.95775 6.61477C3.84578 6.52903 3.76794 6.44328 3.72424 6.35753C3.68054 6.26892 3.67371 6.17889 3.70376 6.08743C3.73107 5.99882 3.78569 5.93165 3.86762 5.88592C3.95229 5.84019 4.06427 5.81875 4.20356 5.82161L6.7722 5.83447L7.55058 3.27061C7.59428 3.13341 7.6489 3.03052 7.71445 2.96192C7.78 2.89046 7.85784 2.85473 7.94797 2.85473C8.04356 2.85473 8.12413 2.89046 8.18967 2.96192C8.25522 3.03052 8.30984 3.13341 8.35354 3.27061L9.13192 5.83447L11.7006 5.82161C11.8371 5.81875 11.9477 5.84019 12.0324 5.88592C12.1171 5.93165 12.1731 5.99882 12.2004 6.08743C12.2304 6.17889 12.2236 6.26892 12.1799 6.35753C12.1362 6.44328 12.0584 6.52903 11.9464 6.61477L9.85704 8.18396L10.6723 10.7392C10.716 10.8764 10.7296 10.9922 10.7133 11.0865C10.6996 11.1837 10.6559 11.2609 10.5822 11.318C10.5084 11.3781 10.4251 11.3995 10.3323 11.3824C10.2394 11.3652 10.137 11.3138 10.025 11.228L7.94797 9.6331L5.87912 11.228C5.76714 11.3138 5.66472 11.3652 5.57186 11.3824Z" fill="#00D33F"/>
</svg>
