<svg width="18" height="20" viewBox="0 0 18 20" fill="none" xmlns="http://www.w3.org/2000/svg">
<path d="M1.4679 9.10122C1.87663 9.10122 2.28386 9.25887 2.5801 9.56909L7.49985 14.7178L7.49985 1.453C7.49985 0.650944 8.17182 0 8.99978 0C9.82774 0 10.4997 0.650944 10.4997 1.453L10.4997 14.6815L15.328 9.62866C15.8327 9.10122 16.6786 8.93921 17.3071 9.32716C18.1066 9.82118 18.2236 10.8514 17.6094 11.4936L9.81649 19.6486C9.36876 20.1171 8.59555 20.1171 8.14857 19.6486L0.429205 11.5706C-0.161016 10.9523 -0.155766 9.9396 0.527451 9.41652C0.802687 9.20511 1.13642 9.10122 1.4679 9.10122Z" fill="#727272"/>
</svg>
