<svg width="30" height="30" viewBox="0 0 30 30" fill="none" xmlns="http://www.w3.org/2000/svg">
<path d="M23 19.7793V17.5197C23 16.6062 22.5288 16.1351 21.6154 16.1351H8.38462C7.45192 16.1351 7.00962 16.6062 7 17.5197V19.7793C7 20.6928 7.47115 21.1639 8.38462 21.1639H21.6154C22.5288 21.1735 23 20.7024 23 19.7793ZM23 12.4716V10.2216C23 9.30815 22.5288 8.837 21.6154 8.837L8.38462 8.837C7.45192 8.837 7 9.30815 7 10.2216V12.4716C7 13.3947 7.47115 13.8562 8.38462 13.8562H21.6154C22.5288 13.8562 23 13.3947 23 12.4716Z" fill="#727272"/>
</svg>
