<svg width="20" height="20" viewBox="0 0 20 20" fill="none" xmlns="http://www.w3.org/2000/svg">
<circle cx="10" cy="10" r="10" fill="#242424"/>
<path d="M6.77273 14.9179C6.86317 14.9883 6.96533 15.0134 7.07921 14.9933C7.1931 14.9732 7.31871 14.9129 7.45604 14.8124L9.9933 12.9434L12.5406 14.8124C12.6779 14.9129 12.8035 14.9732 12.9174 14.9933C13.0313 15.0134 13.1335 14.9883 13.2239 14.9179C13.3144 14.8509 13.3679 14.7605 13.3847 14.6466C13.4048 14.5361 13.388 14.4004 13.3344 14.2397L12.3346 11.2452L14.897 9.4063C15.0343 9.30581 15.1298 9.20533 15.1834 9.10484C15.237 9.001 15.2454 8.89549 15.2085 8.78831C15.175 8.68447 15.1063 8.60576 15.0025 8.55217C14.8987 8.49858 14.763 8.47345 14.5955 8.4768L11.4453 8.49188L10.4907 5.48736C10.4371 5.32658 10.3701 5.206 10.2897 5.12561C10.2093 5.04187 10.1105 5 9.9933 5C9.88276 5 9.7873 5.04187 9.70691 5.12561C9.62653 5.206 9.55954 5.32658 9.50594 5.48736L8.55133 8.49188L5.4011 8.4768C5.23028 8.47345 5.09295 8.49858 4.98911 8.55217C4.88863 8.60576 4.82164 8.68447 4.78814 8.78831C4.7513 8.89549 4.75967 9.001 4.81326 9.10484C4.86686 9.20533 4.96232 9.30581 5.09965 9.4063L7.66203 11.2452L6.65717 14.2397C6.60693 14.4004 6.59018 14.5361 6.60693 14.6466C6.62703 14.7605 6.6823 14.8509 6.77273 14.9179Z" fill="#727272"/>
</svg>
