<svg width="31" height="31" viewBox="0 0 31 31" fill="none" xmlns="http://www.w3.org/2000/svg">
<path d="M14.8952 24.5H16.433C16.6937 24.5 16.9159 24.4259 17.0996 24.2777C17.2892 24.1294 17.4137 23.9279 17.473 23.6729L17.8907 21.9121C18.0211 21.8646 18.1515 21.8142 18.2818 21.7609C18.4122 21.7134 18.5367 21.6601 18.6552 21.6008L20.193 22.5435C20.4063 22.6798 20.6315 22.7362 20.8685 22.7125C21.1115 22.6887 21.3218 22.5879 21.4996 22.4101L22.5752 21.334C22.7589 21.1561 22.8626 20.9457 22.8863 20.7026C22.91 20.4536 22.8478 20.2223 22.6996 20.0089L21.7663 18.4792C21.8255 18.3547 21.8789 18.2302 21.9263 18.1057C21.9796 17.9812 22.027 17.8567 22.0685 17.7322L23.8374 17.3142C24.0922 17.2549 24.2937 17.1334 24.4418 16.9496C24.59 16.7658 24.6641 16.5405 24.6641 16.2737V14.7708C24.6641 14.5158 24.59 14.2964 24.4418 14.1126C24.2937 13.9229 24.0922 13.7984 23.8374 13.7391L22.0774 13.3211C22.0359 13.1789 21.9885 13.0455 21.9352 12.9209C21.8818 12.7905 21.8315 12.6719 21.7841 12.5652L22.7174 11.0089C22.8596 10.7895 22.9189 10.5613 22.8952 10.3241C22.8774 10.087 22.7767 9.87648 22.593 9.69269L21.4996 8.60771C21.3159 8.4417 21.1115 8.34387 20.8863 8.31423C20.667 8.28458 20.4478 8.33202 20.2285 8.45652L18.6552 9.42589C18.5426 9.37253 18.4211 9.32213 18.2907 9.2747C18.1663 9.22134 18.033 9.16798 17.8907 9.11462L17.473 7.32708C17.4137 7.07213 17.2892 6.87055 17.0996 6.72233C16.9159 6.57411 16.6937 6.5 16.433 6.5H14.8952C14.6344 6.5 14.4092 6.57411 14.2196 6.72233C14.0359 6.87055 13.9174 7.07213 13.8641 7.32708L13.4374 9.09684C13.307 9.1502 13.1737 9.20356 13.0374 9.25692C12.907 9.30435 12.7826 9.35771 12.6641 9.417L11.0996 8.45652C10.8744 8.33202 10.6522 8.28458 10.433 8.31423C10.2137 8.34387 10.0122 8.44466 9.82851 8.6166L8.73517 9.69269C8.54554 9.87648 8.44184 10.087 8.42406 10.3241C8.40628 10.5613 8.46554 10.7895 8.60184 11.0089L9.54406 12.5652C9.49666 12.6719 9.44628 12.7905 9.39295 12.9209C9.33962 13.0455 9.28925 13.1789 9.24184 13.3211L7.49073 13.7391C7.22999 13.7984 7.02554 13.9229 6.8774 14.1126C6.73517 14.2964 6.66406 14.5158 6.66406 14.7708V16.2737C6.66406 16.5405 6.73517 16.7658 6.8774 16.9496C7.02554 17.1334 7.22999 17.2549 7.49073 17.3142L9.26851 17.7322C9.30406 17.8567 9.34554 17.9812 9.39295 18.1057C9.44628 18.2302 9.50258 18.3547 9.56184 18.4792L8.61962 20.0089C8.4774 20.2223 8.41517 20.4536 8.43295 20.7026C8.45666 20.9457 8.56036 21.1561 8.74406 21.334L9.82851 22.4101C10.0063 22.5879 10.2137 22.6887 10.4507 22.7125C10.6937 22.7362 10.9218 22.6798 11.1352 22.5435L12.673 21.6008C12.7915 21.6601 12.9159 21.7134 13.0463 21.7609C13.1767 21.8142 13.307 21.8646 13.4374 21.9121L13.8641 23.6729C13.9174 23.9279 14.0359 24.1294 14.2196 24.2777C14.4092 24.4259 14.6344 24.5 14.8952 24.5ZM15.6685 18.4348C15.1292 18.4348 14.6374 18.3014 14.193 18.0346C13.7485 17.7678 13.393 17.4121 13.1263 16.9674C12.8655 16.5227 12.7352 16.0306 12.7352 15.4911C12.7352 14.9575 12.8655 14.4713 13.1263 14.0326C13.393 13.5879 13.7485 13.2322 14.193 12.9654C14.6374 12.6986 15.1292 12.5652 15.6685 12.5652C16.2078 12.5652 16.6967 12.6986 17.1352 12.9654C17.5796 13.2322 17.9322 13.5879 18.193 14.0326C18.4596 14.4713 18.593 14.9575 18.593 15.4911C18.593 16.0306 18.4596 16.5227 18.193 16.9674C17.9322 17.4121 17.5796 17.7678 17.1352 18.0346C16.6967 18.3014 16.2078 18.4348 15.6685 18.4348Z" fill="#727272"/>
</svg>
