<svg width="31" height="30" viewBox="0 0 31 30" fill="none" xmlns="http://www.w3.org/2000/svg">
<path d="M8.51461 21.1351H23.2358C24.1841 21.1351 24.7641 20.6098 24.7641 19.8218C24.7641 18.8274 23.8803 17.9737 23.0517 17.167C22.398 16.5197 22.2507 15.1689 22.131 13.9212C21.9837 10.4878 20.9986 8.06754 18.6142 7.19512C18.2367 5.95685 17.2332 5 15.8706 5C14.5173 5 13.5137 5.95685 13.1271 7.19512C10.7518 8.06754 9.75749 10.4878 9.61939 13.9212C9.49971 15.1689 9.3432 16.5197 8.69874 17.167C7.87015 17.9737 6.98633 18.8274 6.98633 19.8218C6.98633 20.6098 7.56634 21.1351 8.51461 21.1351ZM15.8706 25C17.5094 25 18.697 23.8086 18.8167 22.4484H12.9337C13.0534 23.8086 14.2411 25 15.8706 25Z" fill="#727272"/>
</svg>
