<svg width="31" height="31" viewBox="0 0 31 31" fill="none" xmlns="http://www.w3.org/2000/svg">
<path d="M13.8032 6.19045C14.5409 6.3134 15.0411 7.0129 14.9182 7.75055L14.5027 10.2433H18.5344L19.0219 7.30542C19.1449 6.56776 19.8444 6.06751 20.582 6.19045C21.3197 6.3134 21.8199 7.0129 21.697 7.75055L21.2858 10.2433H23.7531C24.5035 10.2433 25.1097 10.8496 25.1097 11.5999C25.1097 12.3503 24.5035 12.9565 23.7531 12.9565H20.8322L19.9292 18.383H22.3965C23.1469 18.383 23.7531 18.9892 23.7531 19.7396C23.7531 20.49 23.1469 21.0962 22.3965 21.0962H19.4755L18.988 24.0341C18.8651 24.7717 18.1656 25.272 17.4279 25.1491C16.6903 25.0261 16.19 24.3266 16.3129 23.589L16.7284 21.1004H12.6925L12.205 24.0383C12.082 24.776 11.3825 25.2762 10.6449 25.1533C9.90721 25.0304 9.40696 24.3309 9.52991 23.5932L9.94113 21.0962H7.4738C6.72342 21.0962 6.11719 20.49 6.11719 19.7396C6.11719 18.9892 6.72342 18.383 7.4738 18.383H10.3947L11.2977 12.9565H8.8304C8.08003 12.9565 7.4738 12.3503 7.4738 11.5999C7.4738 10.8496 8.08003 10.2433 8.8304 10.2433H11.7514L12.2389 7.30542C12.3618 6.56776 13.0613 6.06751 13.799 6.19045H13.8032ZM14.0491 12.9565L13.1461 18.383H17.1778L18.0808 12.9565H14.0491Z" fill="#727272"/>
</svg>
