<svg width="28" height="28" viewBox="0 0 28 28" fill="none" xmlns="http://www.w3.org/2000/svg">
<path fill-rule="evenodd" clip-rule="evenodd" d="M14 23.1372C19.5228 23.1372 24 18.8532 24 13.5686C24 8.284 19.5228 4 14 4C8.47715 4 4 8.284 4 13.5686C4 14.9919 4.36682 16.4878 5.10047 18.0563L5.26329 18.3935C5.81462 19.5008 5.84398 20.7957 5.3434 21.9268C4.87919 22.9758 4.80019 23.6276 5.10639 23.8824C5.44173 24.1614 6.40716 23.9438 8.00269 23.2296L8.4332 23.032C9.2578 22.6448 10.1848 22.5391 11.0721 22.7272L11.293 22.7804C12.1748 23.0183 13.0771 23.1372 14 23.1372Z" fill="#727272"/>
</svg>
