<svg width="30" height="30" viewBox="0 0 30 30" fill="none" xmlns="http://www.w3.org/2000/svg">
<path d="M2.35985 19.5603C2.57381 19.4969 2.72537 19.3655 2.81452 19.1663C2.91259 18.967 2.93488 18.7405 2.88138 18.4868C2.712 17.8346 2.58273 17.1597 2.49358 16.4622C2.41334 15.7647 2.39105 14.9721 2.42671 14.0843C2.42671 13.8307 2.35985 13.6314 2.22612 13.4864C2.10131 13.3324 1.93193 13.2418 1.71796 13.2147C1.45051 13.1875 1.23655 13.2509 1.07607 13.4049C0.915602 13.5498 0.821993 13.7446 0.795248 13.9892C0.750672 14.7411 0.764045 15.5337 0.835366 16.3671C0.906687 17.1915 1.06716 18.0566 1.31678 18.9624C1.3881 19.207 1.52183 19.3882 1.71796 19.506C1.92301 19.6147 2.13697 19.6328 2.35985 19.5603ZM1.78483 11.7064C1.99879 11.797 2.21721 11.7925 2.44009 11.6928C2.66296 11.5841 2.81898 11.3984 2.90813 11.1357C3.59459 9.25149 4.54851 7.66621 5.76988 6.37987C6.99125 5.09353 8.38201 4.12425 9.94216 3.47202C11.5023 2.81074 13.1293 2.48009 14.8232 2.48009C15.9465 2.48009 16.9539 2.59333 17.8454 2.8198C18.7369 3.03721 19.5616 3.34973 20.3193 3.75737C20.5779 3.90231 20.8231 3.96572 21.0548 3.94761C21.2956 3.92949 21.4649 3.79814 21.563 3.55355C21.6789 3.32708 21.6923 3.12326 21.6031 2.94209C21.514 2.76091 21.3713 2.61145 21.1752 2.49368C20.1945 1.87769 19.196 1.4474 18.1797 1.20282C17.1634 0.95823 16.0446 0.835938 14.8232 0.835938C12.844 0.835938 10.9719 1.19376 9.20666 1.9094C7.45038 2.62503 5.89469 3.68943 4.5396 5.10259C3.19341 6.51575 2.12806 8.26409 1.34353 10.3476C1.22763 10.6918 1.21426 10.9862 1.30341 11.2308C1.40148 11.4754 1.56195 11.6339 1.78483 11.7064ZM28.4767 16.5438C28.7174 16.5438 28.9046 16.4577 29.0383 16.2856C29.181 16.1135 29.2434 15.9006 29.2255 15.6469C29.0472 13.8714 28.7352 12.3043 28.2895 10.9455C27.8437 9.5776 27.2642 8.3592 26.551 7.29027C25.8378 6.22134 24.9864 5.23394 23.9968 4.32807C23.8007 4.1469 23.5912 4.0699 23.3683 4.09708C23.1454 4.12425 22.9671 4.21484 22.8334 4.36884C22.6908 4.52284 22.6239 4.71307 22.6328 4.93954C22.6507 5.15695 22.7576 5.36077 22.9538 5.551C24.2375 6.79204 25.2895 8.21879 26.1097 9.83124C26.9388 11.4346 27.4604 13.3913 27.6743 15.7013C27.7011 15.9368 27.7858 16.1361 27.9284 16.2992C28.071 16.4622 28.2538 16.5438 28.4767 16.5438ZM3.76398 23.297C3.89771 23.4963 4.08047 23.6141 4.31226 23.6503C4.55297 23.6775 4.77139 23.6096 4.96752 23.4465C5.44002 23.0479 5.79663 22.5406 6.03734 21.9246C6.27804 21.3086 6.39394 20.6519 6.38503 19.9544C6.38503 19.3565 6.31816 18.8265 6.18443 18.3646C6.05962 17.8935 5.93035 17.4043 5.79663 16.897C5.67182 16.3898 5.60941 15.7692 5.60941 15.0355C5.60941 13.7582 5.85012 12.5624 6.33153 11.4482C6.81295 10.3249 7.47267 9.33754 8.31069 8.48602C9.15763 7.62545 10.1338 6.95057 11.2393 6.4614C12.3448 5.97223 13.5216 5.72764 14.7697 5.72764C16.7667 5.72764 18.5051 6.24852 19.985 7.29027C21.4649 8.33203 22.6105 9.78595 23.4218 11.652C24.242 13.5091 24.6521 15.6741 24.6521 18.1471C24.661 19.6147 24.5629 20.8602 24.3579 21.8839C24.1618 22.8984 23.9523 23.6911 23.7294 24.2618C23.6402 24.4792 23.6269 24.6966 23.6893 24.914C23.7606 25.1314 23.8943 25.2854 24.0904 25.376C24.2955 25.4756 24.5095 25.4847 24.7323 25.4032C24.9641 25.3216 25.1246 25.1631 25.2137 24.9276C25.4634 24.2663 25.6996 23.3695 25.9225 22.2372C26.1543 21.0958 26.2702 19.7279 26.2702 18.1336C26.2702 16.041 25.9983 14.1387 25.4545 12.4266C24.9195 10.7054 24.1439 9.22431 23.1276 7.98326C22.1202 6.74222 20.9122 5.78653 19.5036 5.11618C18.095 4.43678 16.5171 4.09708 14.7697 4.09708C13.2987 4.09708 11.9124 4.38695 10.6108 4.96671C9.3181 5.53741 8.1725 6.32552 7.17401 7.33104C6.18443 8.33656 5.40882 9.5006 4.84717 10.8232C4.28552 12.1367 4.00469 13.5408 4.00469 15.0355C4.00469 15.7511 4.07155 16.3943 4.20528 16.965C4.33901 17.5357 4.47273 18.0656 4.60646 18.5548C4.74019 19.0349 4.81151 19.5014 4.82042 19.9544C4.82042 20.3892 4.74019 20.8013 4.57971 21.1909C4.41924 21.5713 4.20082 21.8929 3.92445 22.1556C3.75507 22.3187 3.65254 22.5089 3.61688 22.7263C3.59014 22.9347 3.63917 23.1249 3.76398 23.297ZM6.89319 25.7565C7.22305 25.5844 7.56628 25.3035 7.92288 24.914C8.27949 24.5335 8.60489 24.1033 8.89909 23.6231C9.19329 23.143 9.39833 22.6856 9.51423 22.2507C9.58555 22.0333 9.57218 21.8205 9.47411 21.6121C9.37605 21.4038 9.22003 21.2588 9.00607 21.1773C8.80102 21.1139 8.60489 21.1365 8.41767 21.2452C8.23045 21.3539 8.09673 21.526 8.01649 21.7616C7.8471 22.3051 7.61085 22.7852 7.30774 23.2019C7.00463 23.6186 6.62573 23.9855 6.17106 24.3025C5.93035 24.4747 5.7788 24.6604 5.71639 24.8597C5.6629 25.068 5.67627 25.2628 5.75651 25.4439C5.84566 25.6342 5.99276 25.7655 6.19781 25.838C6.41177 25.9105 6.64356 25.8833 6.89319 25.7565ZM9.63458 18.4733C9.48303 18.0384 9.31364 17.5447 9.12642 16.9922C8.93921 16.4396 8.8456 15.8055 8.8456 15.0898C8.8456 13.9575 9.10859 12.9339 9.63458 12.0189C10.1695 11.0949 10.8872 10.3657 11.7876 9.83124C12.6969 9.28772 13.7088 9.01596 14.8232 9.01596C15.2511 9.01596 15.5988 9.03408 15.8663 9.07031C16.1426 9.09749 16.4056 9.1609 16.6552 9.26054C16.9049 9.35113 17.2124 9.48701 17.578 9.66819C17.8008 9.76783 18.0059 9.79048 18.1931 9.73613C18.3803 9.68178 18.514 9.57307 18.5943 9.41001C18.7013 9.20166 18.7235 8.98878 18.6611 8.77137C18.5987 8.54491 18.4472 8.3592 18.2065 8.21426C17.7785 7.96062 17.2659 7.7568 16.6686 7.6028C16.0802 7.43974 15.4651 7.35821 14.8232 7.35821C13.7623 7.35821 12.7727 7.55751 11.8544 7.95609C10.9362 8.35467 10.1294 8.90725 9.43399 9.61383C8.73862 10.3204 8.19479 11.1448 7.80253 12.0869C7.41026 13.0199 7.21413 14.0209 7.21413 15.0898C7.21413 15.8779 7.30328 16.6117 7.48158 17.2911C7.65989 17.9705 7.85156 18.5729 8.05661 19.0983C8.16359 19.3429 8.3196 19.515 8.52465 19.6147C8.7297 19.7052 8.95704 19.7007 9.20666 19.6011C9.42062 19.5105 9.56326 19.361 9.63458 19.1527C9.71482 18.9353 9.71482 18.7088 9.63458 18.4733ZM19.6775 11.489C20.2748 12.3949 20.725 13.4638 21.0281 14.6958C21.3312 15.9187 21.4828 17.2956 21.4828 18.8265C21.4828 20.4662 21.2733 22.0107 20.8543 23.4601C20.4442 24.9095 19.8959 26.069 19.2094 26.9386C19.0757 27.1107 19.0088 27.31 19.0088 27.5365C19.0088 27.763 19.0846 27.9532 19.2362 28.1072C19.4056 28.2703 19.6151 28.3427 19.8647 28.3246C20.1143 28.3156 20.3104 28.2114 20.4531 28.0121C21.2465 26.925 21.8795 25.5662 22.352 23.9357C22.8245 22.296 23.0607 20.5794 23.0607 18.7858C23.0607 17.427 22.9761 16.2584 22.8067 15.2801C22.6373 14.2927 22.401 13.4276 22.0979 12.6847C21.8037 11.9329 21.4649 11.2444 21.0816 10.6194C20.9479 10.3838 20.7696 10.2344 20.5467 10.1709C20.3238 10.0985 20.1143 10.1166 19.9182 10.2253C19.6953 10.334 19.5616 10.5106 19.517 10.7552C19.4724 10.9998 19.5259 11.2444 19.6775 11.489ZM9.60784 27.4686C10.6687 26.608 11.48 25.5164 12.0417 24.1938C12.6122 22.8622 12.8931 21.4309 12.8841 19.9C12.8752 19.13 12.8039 18.4506 12.6702 17.8618C12.5365 17.2639 12.3983 16.7295 12.2556 16.2584C12.1219 15.7873 12.055 15.3435 12.055 14.9268C12.055 14.1296 12.3047 13.491 12.8039 13.0109C13.3121 12.5217 13.9762 12.2771 14.7964 12.2771C15.5988 12.2771 16.2407 12.5579 16.7221 13.1196C17.2124 13.6812 17.5735 14.4467 17.8053 15.4159C18.0371 16.3762 18.1619 17.4677 18.1797 18.6907C18.2332 20.0223 18.1218 21.2769 17.8454 22.4546C17.578 23.6231 17.1946 24.6694 16.6954 25.5934C16.205 26.5174 15.6389 27.2602 14.997 27.8219C14.8276 27.9759 14.7251 28.157 14.6895 28.3654C14.6538 28.5737 14.6939 28.7685 14.8098 28.9497C14.9435 29.149 15.1308 29.2622 15.3715 29.2894C15.6122 29.3165 15.8261 29.2441 16.0133 29.072C16.6998 28.4288 17.3239 27.5682 17.8855 26.4902C18.4472 25.4213 18.8929 24.2074 19.2228 22.8486C19.5526 21.4808 19.7176 20.0585 19.7176 18.582C19.7087 17.042 19.5393 15.6741 19.2094 14.4784C18.8796 13.2826 18.3536 12.345 17.6314 11.6656C16.9182 10.9862 15.9732 10.6465 14.7964 10.6465C13.9762 10.6465 13.2407 10.8186 12.5899 11.1629C11.9391 11.5071 11.4221 11.9917 11.0387 12.6168C10.6643 13.2419 10.4771 13.9665 10.4771 14.7909C10.4771 15.2982 10.5395 15.8326 10.6643 16.3943C10.798 16.9469 10.9273 17.5221 11.0521 18.12C11.1858 18.7088 11.2527 19.3021 11.2527 19.9C11.2616 21.1863 11.0387 22.3776 10.584 23.4737C10.1294 24.5698 9.46965 25.4711 8.60489 26.1777C8.40876 26.3408 8.29286 26.5265 8.2572 26.7348C8.23045 26.9522 8.27949 27.156 8.4043 27.3463C8.54694 27.5456 8.73416 27.6543 8.96595 27.6724C9.20666 27.6996 9.42062 27.6316 9.60784 27.4686ZM12.6167 28.5148C13.1249 28.1434 13.6375 27.5863 14.1545 26.8435C14.6805 26.1098 15.0728 25.3352 15.3313 24.52C15.3937 24.3297 15.3937 24.1259 15.3313 23.9085C15.2689 23.6911 15.1308 23.5416 14.9168 23.4601C14.6672 23.3786 14.4487 23.3876 14.2615 23.4873C14.0743 23.5869 13.9361 23.7409 13.847 23.9493C13.5528 24.7374 13.2185 25.3896 12.844 25.9059C12.4696 26.4223 12.0684 26.8526 11.6405 27.1968C11.4622 27.3508 11.3507 27.532 11.3062 27.7403C11.2616 27.9577 11.3017 28.1616 11.4265 28.3518C11.5424 28.5511 11.7207 28.6643 11.9614 28.6915C12.2021 28.7187 12.4206 28.6598 12.6167 28.5148ZM16.1337 21.2724C16.2407 20.6655 16.2986 20.0268 16.3075 19.3565C16.3254 18.6861 16.2808 18.0067 16.1738 17.3183C16.0758 16.6208 15.9242 15.9413 15.7192 15.2801C15.63 15.0174 15.4874 14.8362 15.2912 14.7365C15.104 14.6278 14.899 14.6097 14.6761 14.6822C14.4621 14.7456 14.3016 14.8724 14.1947 15.0627C14.0877 15.2529 14.0743 15.4658 14.1545 15.7013C14.3507 16.3354 14.4889 16.9605 14.5691 17.5764C14.6583 18.1834 14.6984 18.7767 14.6895 19.3565C14.6895 19.9272 14.6404 20.4888 14.5424 21.0414C14.5067 21.2588 14.5379 21.4626 14.636 21.6529C14.734 21.834 14.9079 21.9473 15.1575 21.9926C15.3804 22.0288 15.5854 21.9835 15.7726 21.8567C15.9599 21.7208 16.0802 21.526 16.1337 21.2724Z" fill="#727272"/>
</svg>
