<svg width="28" height="28" viewBox="0 0 28 28" fill="none" xmlns="http://www.w3.org/2000/svg">
<path d="M25.2432 13.9805C25.2432 14.6836 24.6572 15.2344 23.9932 15.2344H22.7432L22.7705 21.4922C22.7705 21.5977 22.7627 21.7031 22.751 21.8086V22.4375C22.751 23.3008 22.0518 24 21.1885 24H20.5635C20.5205 24 20.4775 24 20.4346 23.9961C20.3799 24 20.3252 24 20.2705 24H19.001H18.0635C17.2002 24 16.501 23.3008 16.501 22.4375V21.5V19C16.501 18.3086 15.9424 17.75 15.251 17.75H12.751C12.0596 17.75 11.501 18.3086 11.501 19V21.5V22.4375C11.501 23.3008 10.8018 24 9.93848 24H9.00098H7.75488C7.69629 24 7.6377 23.9961 7.5791 23.9922C7.53223 23.9961 7.48535 24 7.43848 24H6.81348C5.9502 24 5.25098 23.3008 5.25098 22.4375V18.0625C5.25098 18.0273 5.25098 17.9883 5.25488 17.9531V15.2344H4.00098C3.29785 15.2344 2.75098 14.6875 2.75098 13.9805C2.75098 13.6289 2.86816 13.3164 3.1416 13.043L13.1572 4.3125C13.4307 4.03906 13.7432 4 14.0166 4C14.29 4 14.6025 4.07812 14.8369 4.27344L24.8135 13.043C25.126 13.3164 25.2822 13.6289 25.2432 13.9805Z" fill="#727272"/>
</svg>
