<svg width="28" height="28" viewBox="0 0 28 28" fill="none" xmlns="http://www.w3.org/2000/svg">
<path d="M21.7144 5C22.4255 5 23.0001 5.57576 23.0001 6.28571C23.0001 6.99567 22.4255 7.57143 21.7144 7.57143H6.92864C6.57346 7.57143 6.28578 7.86071 6.28578 8.21429C6.28578 8.56786 6.57346 8.85714 6.92864 8.85714H21.7144C23.1327 8.85714 24.2858 10.0103 24.2858 11.4286V20.4286C24.2858 21.8469 23.1327 23 21.7144 23H6.28578C4.86547 23 3.71436 21.8469 3.71436 20.4286V7.57143C3.71436 6.15112 4.86547 5 6.28578 5H21.7144ZM20.4286 17.2143C21.1398 17.2143 21.7144 16.6397 21.7144 15.9286C21.7144 15.2174 21.1398 14.6429 20.4286 14.6429C19.7175 14.6429 19.1429 15.2174 19.1429 15.9286C19.1429 16.6397 19.7175 17.2143 20.4286 17.2143Z" fill="#727272"/>
</svg>
