<svg width="20" height="21" viewBox="0 0 20 21" fill="none" xmlns="http://www.w3.org/2000/svg">
<path d="M5.91618 16.5H14.7008C15.0791 16.5 15.3756 16.4159 15.5904 16.2478C15.8053 16.0797 15.9127 15.8438 15.9127 15.5403C15.9127 15.1153 15.7819 14.6693 15.5204 14.2023C15.2635 13.7306 14.8899 13.2916 14.3995 12.8853C13.9092 12.4743 13.3184 12.1404 12.6272 11.8835C11.9407 11.6267 11.1678 11.4982 10.3085 11.4982C9.44916 11.4982 8.67391 11.6267 7.98273 11.8835C7.29154 12.1404 6.70077 12.4743 6.2104 12.8853C5.7247 13.2916 5.35109 13.7306 5.08956 14.2023C4.82803 14.6693 4.69727 15.1153 4.69727 15.5403C4.69727 15.8438 4.80468 16.0797 5.01951 16.2478C5.23434 16.4159 5.53323 16.5 5.91618 16.5ZM10.3085 10.3284C10.7942 10.3284 11.2402 10.1976 11.6465 9.93608C12.0528 9.67455 12.3774 9.32195 12.6202 8.87828C12.8677 8.42995 12.9915 7.9279 12.9915 7.37215C12.9915 6.83041 12.8677 6.34238 12.6202 5.90806C12.3774 5.47373 12.0528 5.13047 11.6465 4.87828C11.2402 4.62609 10.7942 4.5 10.3085 4.5C9.82745 4.5 9.38145 4.62843 8.97047 4.88529C8.56417 5.14215 8.23725 5.49008 7.98974 5.92907C7.74689 6.3634 7.6278 6.8491 7.63247 7.38616C7.63247 7.93257 7.75389 8.42995 7.99674 8.87828C8.23959 9.32195 8.56417 9.67455 8.97047 9.93608C9.37678 10.1976 9.82278 10.3284 10.3085 10.3284Z" fill="#727272"/>
</svg>
