<svg width="30" height="31" viewBox="0 0 30 31" fill="none" xmlns="http://www.w3.org/2000/svg">
<path d="M7.81934 10.96C11.7851 7.07715 18.2149 7.07715 22.1807 10.96L22.658 11.4273C22.8563 11.6214 22.8563 11.9362 22.658 12.1303L21.0253 13.7289C20.9261 13.8259 20.7654 13.8259 20.6662 13.7289L20.0094 13.0858C17.2428 10.3771 12.7572 10.3771 9.9906 13.0858L9.28722 13.7745C9.18807 13.8716 9.02733 13.8716 8.92818 13.7745L7.29548 12.1759C7.09719 11.9818 7.09719 11.667 7.29548 11.4729L7.81934 10.96ZM25.5573 14.2659L27.0104 15.6887C27.2087 15.8828 27.2087 16.1976 27.0104 16.3917L20.4582 22.8069C20.2599 23.0011 19.9384 23.0011 19.7401 22.8069C19.7401 22.8069 19.7401 22.8069 19.7401 22.8069L15.0898 18.2539C15.0402 18.2053 14.9599 18.2053 14.9103 18.2539H14.9103L10.26 22.8069C10.0618 23.0011 9.74027 23.0011 9.54198 22.807C9.54198 22.8069 9.54198 22.8069 9.54198 22.8069L2.98962 16.3916C2.79133 16.1975 2.79133 15.8827 2.98962 15.6886L4.44273 14.2659C4.64102 14.0717 4.96251 14.0717 5.1608 14.2659L9.8112 18.819C9.86078 18.8675 9.94115 18.8675 9.99072 18.819C9.99072 18.819 9.99072 18.819 9.99072 18.819L14.6409 14.2659C14.8392 14.0717 15.1607 14.0717 15.359 14.2659C15.359 14.2659 15.359 14.2659 15.359 14.2659L20.0094 18.819C20.0589 18.8675 20.1393 18.8675 20.1889 18.819L24.8392 14.2659C25.0375 14.0718 25.359 14.0718 25.5573 14.2659Z" fill="#3B99FC"/>
</svg>
