<svg
      xmlns="http://www.w3.org/2000/svg"
      width="20"
      height="20"
      viewBox="0 0 75 75"
      fill="none"
>
  <path
    d="M60.3218 55.7376C60.7179 57.2102 62.8156 57.2102 63.2117 55.7376L74.6156 13.3426C75.1407 11.3905 73.6641 9.47363 71.6353 9.47363H64.6042C63.2077 9.47363 61.9854 10.408 61.6239 11.7516L55.1931 35.6588C55.1039 35.9905 55.1039 36.3396 55.1931 36.6713L60.3218 55.7376Z"
    fill="white"
  />
  <path
    d="M20.4673 35.6278C20.5565 35.9595 20.5565 36.3086 20.4673 36.6403L15.3386 55.7066C14.9425 57.1792 12.8448 57.1792 12.4487 55.7066L1.05312 13.3426C0.528041 11.3905 2.00466 9.47363 4.03341 9.47363H11.0645C12.461 9.47363 13.6834 10.408 14.0448 11.7516L20.4673 35.6278Z"
    fill="white"
  />
  <path
    d="M30.0804 65.0565C29.7314 66.3581 28.5509 67.2631 27.2023 67.2631H20.007C18.0478 67.2631 16.6217 65.4063 17.1288 63.5155L30.9749 11.8871C31.3567 10.4635 32.6478 9.47363 34.1229 9.47363H42.4916C43.9666 9.47363 45.2578 10.4635 45.6396 11.8871L59.4856 63.5155C59.9927 65.4063 58.5667 67.2631 56.6074 67.2631H49.4122C48.0636 67.2631 46.8831 66.3581 46.534 65.0565L39.7014 39.5793C39.3192 38.1542 37.2953 38.1542 36.9131 39.5793L30.0804 65.0565Z"
    fill="white"
  />
  <path
    d="M35.7803 59.6842C35.2654 59.6842 34.8907 59.2214 35.0239 58.7501L37.5509 49.8131C37.7583 49.0798 38.8563 49.0798 39.0636 49.8131L41.5906 58.7501C41.7239 59.2214 41.3491 59.6842 40.8343 59.6842H35.7803Z"
    fill="white"
  />
</svg>