<svg width="90" height="90" viewBox="0 0 90 90" fill="none" xmlns="http://www.w3.org/2000/svg">
<path d="M45 90C69.8528 90 90 69.8528 90 45C90 20.1472 69.8528 0 45 0C20.1472 0 0 20.1472 0 45C0 69.8528 20.1472 90 45 90Z" fill="black"/>
<path d="M30.4442 47.6262H59.5597C60.6135 47.6262 61.6241 48.0448 62.3693 48.79C63.1144 49.5352 63.5331 50.5458 63.5331 51.5996V64.8624C63.5331 65.9162 63.1144 66.9268 62.3693 67.672C61.6241 68.4172 60.6135 68.8358 59.5597 68.8358H26.4708V51.6223C26.4678 51.0986 26.5683 50.5795 26.7667 50.0948C26.965 49.6101 27.2572 49.1694 27.6265 48.798C27.9958 48.4266 28.4348 48.1319 28.9184 47.9308C29.4019 47.7297 29.9205 47.6262 30.4442 47.6262Z" fill="white"/>
<path d="M30.4441 23.8223H51.6174C52.1392 23.8223 52.6558 23.925 53.1379 24.1247C53.62 24.3244 54.058 24.6171 54.427 24.986C54.7959 25.355 55.0886 25.793 55.2883 26.2751C55.488 26.7572 55.5907 27.2739 55.5907 27.7957V35.7334C55.5907 36.2552 55.488 36.7718 55.2883 37.2539C55.0886 37.736 54.7959 38.174 54.427 38.543C54.058 38.9119 53.62 39.2046 53.1379 39.4043C52.6558 39.604 52.1392 39.7068 51.6174 39.7068H26.4707V27.7957C26.4707 27.2739 26.5735 26.7572 26.7732 26.2751C26.9728 25.793 27.2655 25.355 27.6345 24.986C28.0034 24.6171 28.4415 24.3244 28.9235 24.1247C29.4056 23.925 29.9223 23.8223 30.4441 23.8223Z" fill="white"/>
</svg>
