<svg width="170" height="29" viewBox="0 0 170 29" fill="none" xmlns="http://www.w3.org/2000/svg">
<path fill-rule="evenodd" clip-rule="evenodd" d="M59.572 11.8657L57.2005 20.4635H54.7341L51.4141 7.88282H54.1294L56.0977 16.9934H56.1689L58.5048 7.88282H60.7103L63.0462 16.9934H63.1173L65.0975 7.88282H67.8129L64.4928 20.4635H62.0265L59.655 11.8657H59.572ZM71.4175 18.7582C72.5203 18.7582 73.4333 18.0308 73.4333 17.0291V16.3494L71.4768 16.4687C70.5282 16.5402 69.9947 16.9695 69.9947 17.6254C69.9828 18.3289 70.5638 18.7582 71.4175 18.7582ZM70.5875 20.6066C68.8208 20.6066 67.4809 19.4618 67.4809 17.7685C67.4809 16.0632 68.7852 15.0854 71.0974 14.9423L73.4333 14.7992V14.191C73.4333 13.3205 72.8286 12.8197 71.8681 12.8197C70.9195 12.8197 70.3267 13.2848 70.2081 13.9764H67.8959C67.9907 12.1638 69.5204 10.9117 71.9867 10.9117C74.37 10.9117 75.9234 12.1519 75.9234 14.036V20.4635H73.4807V19.0325H73.4333C72.8997 20.0223 71.7496 20.6066 70.5875 20.6066ZM77.6071 20.4516V7.88282H80.1328V20.4635H77.6071V20.4516ZM81.8995 20.4516V7.88282H84.4251V20.4635H81.8995V20.4516ZM90.3064 12.7958C89.1918 12.7958 88.3974 13.6425 88.3144 14.8111H92.2629C92.2036 13.6186 91.4329 12.7958 90.3064 12.7958ZM92.2866 17.6015H94.6107C94.338 19.426 92.6661 20.6662 90.3776 20.6662C87.5199 20.6662 85.8006 18.8298 85.8006 15.8367C85.8006 12.8555 87.5318 10.9236 90.2827 10.9236C92.9862 10.9236 94.6937 12.7601 94.6937 15.5982V16.3733H88.2907V16.5283C88.2907 17.8639 89.1325 18.7821 90.425 18.7821C91.3499 18.7702 92.0613 18.3051 92.2866 17.6015ZM96.662 8.95605H99.1876V11.1144H100.907V13.0343H99.1876V17.5061C99.1876 18.2216 99.5315 18.5555 100.279 18.5555C100.504 18.5555 100.741 18.5436 100.895 18.5078V20.38C100.634 20.4396 100.207 20.4873 99.6857 20.4873C97.5039 20.4873 96.6502 19.7599 96.6502 17.9354V13.0343H95.3458V11.1144H96.6502V8.95605H96.662ZM108.045 20.6662C104.405 20.6662 102.128 18.2216 102.128 14.1553C102.128 10.1008 104.429 7.65625 108.045 7.65625C111.057 7.65625 113.345 9.57614 113.535 12.3904H110.986C110.749 10.8521 109.563 9.83849 108.045 9.83849C106.065 9.83849 104.796 11.508 104.796 14.1553C104.796 16.8383 106.053 18.4959 108.057 18.4959C109.61 18.4959 110.725 17.5777 110.998 16.0871H113.547C113.251 18.8894 111.116 20.6662 108.045 20.6662ZM119.203 20.6543C116.393 20.6543 114.602 18.8417 114.602 15.777C114.602 12.7481 116.416 10.9117 119.203 10.9117C121.989 10.9117 123.804 12.7362 123.804 15.777C123.804 18.8536 122.013 20.6543 119.203 20.6543ZM119.203 18.7105C120.448 18.7105 121.231 17.6612 121.231 15.777C121.231 13.9168 120.436 12.8435 119.203 12.8435C117.97 12.8435 117.164 13.9168 117.164 15.777C117.175 17.6612 117.958 18.7105 119.203 18.7105ZM125.108 20.4516V11.1144H127.551V12.7839H127.598C128.096 11.6272 129.068 10.9475 130.503 10.9475C132.566 10.9475 133.728 12.2592 133.728 14.4415V20.4635H131.203V14.9781C131.203 13.7617 130.634 13.0582 129.495 13.0582C128.357 13.0582 127.645 13.8929 127.645 15.1092V20.4635H125.108V20.4516ZM135.329 20.4516V11.1144H137.772V12.7839H137.819C138.317 11.6272 139.289 10.9475 140.724 10.9475C142.787 10.9475 143.949 12.2592 143.949 14.4415V20.4635H141.424V14.9781C141.424 13.7617 140.855 13.0582 139.716 13.0582C138.578 13.0582 137.867 13.8929 137.867 15.1092V20.4635H135.329V20.4516ZM149.724 12.7958C148.609 12.7958 147.815 13.6425 147.732 14.8111H151.68C151.621 13.6186 150.85 12.7958 149.724 12.7958ZM151.704 17.6015H154.028C153.756 19.426 152.084 20.6662 149.795 20.6662C146.938 20.6662 145.218 18.8298 145.218 15.8367C145.218 12.8555 146.949 10.9236 149.7 10.9236C152.404 10.9236 154.111 12.7601 154.111 15.5982V16.3733H147.708V16.5283C147.708 17.8639 148.55 18.7821 149.843 18.7821C150.767 18.7702 151.479 18.3051 151.704 17.6015ZM163.846 14.5846H161.498C161.356 13.5948 160.704 12.9032 159.661 12.9032C158.416 12.9032 157.633 13.9645 157.633 15.7651C157.633 17.6015 158.416 18.6509 159.672 18.6509C160.692 18.6509 161.344 18.0427 161.498 17.0172H163.858C163.728 19.2233 162.091 20.6424 159.649 20.6424C156.85 20.6424 155.072 18.8179 155.072 15.7651C155.072 12.772 156.85 10.8998 159.625 10.8998C162.139 10.9117 163.739 12.4739 163.846 14.5846ZM165.755 8.95605H168.281V11.1144H170V13.0343H168.281V17.5061C168.281 18.2216 168.625 18.5555 169.372 18.5555C169.597 18.5555 169.834 18.5436 169.988 18.5078V20.38C169.727 20.4396 169.301 20.4873 168.779 20.4873C166.597 20.4873 165.743 19.7599 165.743 17.9354V13.0343H164.439V11.1144H165.743V8.95605H165.755Z" fill="#3999FB"/>
<path d="M9.41481 5.53609C16.9087 -1.84536 29.0626 -1.84536 36.5565 5.53609L37.4576 6.41852C37.8371 6.78819 37.8371 7.38443 37.4576 7.7541L34.3747 10.7949C34.185 10.9738 33.8886 10.9738 33.6988 10.7949L32.4538 9.56667C27.2247 4.41516 18.7466 4.41516 13.5175 9.56667L12.1894 10.8784C11.9997 11.0573 11.7033 11.0573 11.5136 10.8784L8.41878 7.8495C8.03934 7.47983 8.03934 6.88359 8.41878 6.51392L9.41481 5.53609ZM42.9358 11.8205L45.6867 14.5274C46.0661 14.8971 46.0661 15.4933 45.6867 15.863L33.2957 28.062C32.9162 28.4317 32.3115 28.4317 31.9439 28.062L23.1576 19.4046C23.0627 19.3092 22.9086 19.3092 22.8137 19.4046L14.0273 28.062C13.6479 28.4317 13.0432 28.4317 12.6756 28.062L0.284579 15.863C-0.0948595 15.4933 -0.0948595 14.8971 0.284579 14.5274L3.0355 11.8205C3.41494 11.4508 4.01967 11.4508 4.38725 11.8205L13.1736 20.4779C13.2685 20.5733 13.4226 20.5733 13.5175 20.4779L22.3038 11.8205C22.6833 11.4508 23.288 11.4508 23.6556 11.8205L32.4419 20.4779C32.5368 20.5733 32.691 20.5733 32.7858 20.4779L41.5722 11.8205C41.9516 11.4508 42.5563 11.4508 42.9358 11.8205Z" fill="#3B99FC"/>
</svg>
